<svg width="20" height="20" viewBox="0 0 20 20" fill="none" xmlns="http://www.w3.org/2000/svg">
<path fill-rule="evenodd" clip-rule="evenodd" d="M19 5C19 7.20914 17.2091 9 15 9C13.1362 9 11.5701 7.72523 11.126 6L2.96944 6C1.3379 6 1 5.55228 1 5C1 4.44771 1.3379 4 2.96944 4L11.126 4C11.5701 2.27477 13.1362 1 15 1C17.2091 1 19 2.79086 19 5ZM17 5C17 6.10457 16.1046 7 15 7C13.8954 7 13 6.10457 13 5C13 3.89543 13.8954 3 15 3C16.1046 3 17 3.89543 17 5Z" fill="#B9BED0"/>
<path fill-rule="evenodd" clip-rule="evenodd" d="M7.17071 15H3C1.34315 15 1 14.5523 1 14C1 13.4477 1.34315 13 3 13H7.17071C7.58254 11.8348 8.69378 11 10 11C11.3062 11 12.4175 11.8348 12.8293 13H17C18.6569 13 19 13.4477 19 14C19 14.5523 18.6569 15 17 15H12.8293C12.4175 16.1652 11.3062 17 10 17C8.69378 17 7.58254 16.1652 7.17071 15ZM9 14C9 14.5523 9.44772 15 10 15C10.5523 15 11 14.5523 11 14C11 13.4477 10.5523 13 10 13C9.44772 13 9 13.4477 9 14Z" fill="#B9BED0"/>
</svg>
