<svg width="20" height="20" viewBox="0 0 20 20" fill="none" xmlns="http://www.w3.org/2000/svg">
<path d="M17 3C18.6569 3 19 2.55228 19 2C19 1.44771 18.6569 0.999999 17 0.999999H5C3.34315 0.999999 3 1.44771 3 2C3 2.55228 3.34315 3 5 3L17 3Z" fill="#B9BED0"/>
<path d="M17 11C18.6569 11 19 10.5523 19 10C19 9.44771 18.6569 9 17 9H13C11.3431 9 11 9.44771 11 10C11 10.5523 11.3431 11 13 11H17Z" fill="#B9BED0"/>
<path d="M19 18C19 18.5523 18.6569 19 17 19H5C3.34315 19 3 18.5523 3 18C3 17.4477 3.34315 17 5 17L17 17C18.6569 17 19 17.4477 19 18Z" fill="#B9BED0"/>
<path fill-rule="evenodd" clip-rule="evenodd" d="M1 10C1 8.11438 1 7.17157 1.58579 6.58579C2.17157 6 3.11438 6 5 6C6.88562 6 7.82843 6 8.41421 6.58579C9 7.17157 9 8.11438 9 10C9 11.8856 9 12.8284 8.41421 13.4142C7.82843 14 6.88562 14 5 14C3.11438 14 2.17157 14 1.58579 13.4142C1 12.8284 1 11.8856 1 10ZM5 12C4.00065 12 3.43777 11.9938 3.05739 11.9426C3.00625 11.5622 3 10.9993 3 10C3 9.00065 3.00625 8.43777 3.05739 8.05739C3.43777 8.00624 4.00065 8 5 8C5.99935 8 6.56223 8.00624 6.94261 8.05739C6.99375 8.43777 7 9.00065 7 10C7 10.9993 6.99375 11.5622 6.94261 11.9426C6.56223 11.9938 5.99935 12 5 12Z" fill="#B9BED0"/>
</svg>
