<svg width="20" height="20" viewBox="0 0 20 20" fill="none" xmlns="http://www.w3.org/2000/svg">
<path fill-rule="evenodd" clip-rule="evenodd" d="M1 5C1 3.11438 1 2.17157 1.58579 1.58579C2.17157 1 3.11438 1 5 1C6.88562 1 7.82843 1 8.41421 1.58579C9 2.17157 9 3.11438 9 5V6C9 7.88562 9 8.82843 8.41421 9.41421C7.82843 10 6.88562 10 5 10C3.11438 10 2.17157 10 1.58579 9.41421C1 8.82843 1 7.88562 1 6V5ZM3 5C3 4.00065 3.00425 3.45234 3.05539 3.07195L3.05739 3.05739L3.07195 3.05539C3.45234 3.00425 4.00065 3 5 3C5.99935 3 6.54766 3.00425 6.92805 3.05539L6.94261 3.05739L6.94461 3.07195C6.99575 3.45234 7 4.00065 7 5V6C7 6.99935 6.99575 7.54766 6.94461 7.92805L6.94261 7.94261L6.92805 7.94461C6.54766 7.99575 5.99935 8 5 8C4.00065 8 3.45234 7.99575 3.07195 7.94461L3.05739 7.94261L3.05539 7.92805C3.00425 7.54766 3 6.99935 3 6V5Z" fill="#B9BED0"/>
<path fill-rule="evenodd" clip-rule="evenodd" d="M11 15C11 16.8856 11 17.8284 11.5858 18.4142C12.1716 19 13.1144 19 15 19C16.8856 19 17.8284 19 18.4142 18.4142C19 17.8284 19 16.8856 19 15V14C19 12.1144 19 11.1716 18.4142 10.5858C17.8284 10 16.8856 10 15 10C13.1144 10 12.1716 10 11.5858 10.5858C11 11.1716 11 12.1144 11 14V15ZM13.0554 16.928L13.0574 16.9426L13.072 16.9446C13.4523 16.9958 14.0007 17 15 17C15.9993 17 16.5477 16.9958 16.928 16.9446L16.9426 16.9426L16.9446 16.928C16.9958 16.5477 17 15.9993 17 15V14C17 13.0007 16.9958 12.4523 16.9446 12.072L16.9426 12.0574L16.928 12.0554C16.5477 12.0042 15.9993 12 15 12C14.0007 12 13.4523 12.0042 13.072 12.0554L13.0574 12.0574L13.0554 12.072C13.0042 12.4523 13 13.0007 13 14V15C13 15.9993 13.0042 16.5477 13.0554 16.928Z" fill="#B9BED0"/>
<path fill-rule="evenodd" clip-rule="evenodd" d="M2.23463 12.1522C1.74458 12.3552 1.35523 12.7446 1.15224 13.2346C1 13.6022 1 14.0681 1 15C1 15.9319 1 16.3978 1.15224 16.7654C1.35523 17.2554 1.74458 17.6448 2.23463 17.8478C2.60218 18 3.06812 18 4 18H6C6.93188 18 7.39782 18 7.76537 17.8478C8.25542 17.6448 8.64477 17.2554 8.84776 16.7654C9 16.3978 9 15.9319 9 15C9 14.0681 9 13.6022 8.84776 13.2346C8.64477 12.7446 8.25542 12.3552 7.76537 12.1522C7.39782 12 6.93188 12 6 12H4C3.06812 12 2.60218 12 2.23463 12.1522ZM6.98374 14.0163L6.95817 14.0144C6.76312 14.0011 6.49331 14 6 14H4C3.50669 14 3.23688 14.0011 3.04183 14.0144L3.01626 14.0163L3.01439 14.0418C3.00108 14.2369 3 14.5067 3 15C3 15.4933 3.00108 15.7631 3.01439 15.9582L3.01626 15.9837L3.04183 15.9856C3.23688 15.9989 3.50669 16 4 16H6C6.49331 16 6.76312 15.9989 6.95817 15.9856L6.98373 15.9837L6.98561 15.9582C6.99892 15.7631 7 15.4933 7 15C7 14.5067 6.99892 14.2369 6.98561 14.0418L6.98374 14.0163Z" fill="#B9BED0"/>
<path fill-rule="evenodd" clip-rule="evenodd" d="M19 5C19 5.93188 19 6.39782 18.8478 6.76537C18.6448 7.25542 18.2554 7.64477 17.7654 7.84776C17.3978 8 16.9319 8 16 8H14C13.0681 8 12.6022 8 12.2346 7.84776C11.7446 7.64477 11.3552 7.25542 11.1522 6.76537C11 6.39782 11 5.93188 11 5C11 4.06812 11 3.60218 11.1522 3.23463C11.3552 2.74458 11.7446 2.35523 12.2346 2.15224C12.6022 2 13.0681 2 14 2H16C16.9319 2 17.3978 2 17.7654 2.15224C18.2554 2.35523 18.6448 2.74458 18.8478 3.23463C19 3.60218 19 4.06812 19 5ZM17 5C17 5.49331 16.9989 5.76312 16.9856 5.95817L16.9837 5.98373L16.9582 5.98561C16.7631 5.99892 16.4933 6 16 6H14C13.5067 6 13.2369 5.99892 13.0418 5.98561L13.0163 5.98374L13.0144 5.95817C13.0011 5.76312 13 5.49331 13 5C13 4.50669 13.0011 4.23688 13.0144 4.04183L13.0163 4.01626L13.0418 4.01439C13.2369 4.00108 13.5067 4 14 4H16C16.4933 4 16.7631 4.00108 16.9582 4.01439L16.9837 4.01626L16.9856 4.04183C16.9989 4.23688 17 4.50669 17 5Z" fill="#B9BED0"/>
</svg>
