<svg xmlns="http://www.w3.org/2000/svg" viewBox="0 0 569.2 304.04">
  <defs>
    <linearGradient id="a" x1="307.44" x2="259.42" y1="27.26" y2="299.59" gradientUnits="userSpaceOnUse">
      <stop offset="0" stop-color="#6626c3"/>
      <stop offset=".24" stop-color="#591eb8"/>
      <stop offset="1" stop-color="#320598"/>
    </linearGradient>
  </defs>
  <path fill="url(#a)" d="M569.2 288.34c-1.34 2.82-2.28 5-3.38 7.07a45.85 45.85 0 01-2.64 3.93c-1.78-.7-3.61-1.31-5.34-2.14-18.67-9-37.42-17.77-55.94-27-6.69-3.33-12.28-5.49-19.54-.4-9.5 6.64-19.68 12.06-27.52 21.08-6.74 7.75-16.57 10.37-26.4 12.17-12.33 2.26-24.3.67-36-3.71-12.32-4.62-24.57-9.44-37-13.71a38.94 38.94 0 00-25-.39c-11.09 3.63-21.36 1.66-31.33-3.52a55.34 55.34 0 01-20.61-18.2c-10-14.74-24.45-22.41-41.48-25.74-15.87-3.1-31.83-5.63-46.54-13s-29.5-14.1-44.14-21.39c-14.44-7.18-29.35-13.69-42.91-22.3-20.62-13.09-39.8-28.26-55.21-47.57-2.63-3.28-4.28-6.48-3.5-11.26.91-5.54-2.38-10.3-6.32-14.07-5.4-5.17-11.18-9.94-16.68-15C7.21 79.8 1.36 62.63.3 43.47 0 37.39.09 31.29 0 25.22 18.58 16.27 36.65 6.55 57.19 2.87c25.37-4.56 50.62-3.24 75.81.82 9.71 1.56 19.33 3.67 29 5.45 1.49.27 3.25.62 4.56.11 17.45-6.71 33.51-1.74 48.82 6.34 16.9 8.91 33.4 18.58 49.95 28.14 7.69 4.44 15.14 5.1 22.86.31 5.34-3.32 10.19-2.78 16 .25C331.82 58.69 356 78 380.68 96.6c16.07 12.07 32.42 23.72 50.42 32.83 9.49 4.8 19.09 9.39 28.5 14.33 20.68 10.84 31.23 27.87 32 51.38.52 16.13 2.07 32.24 3.16 48.35 0 .79.18 1.57.25 2.36.57 6.27 2.91 10.64 9.42 13.4 20.34 8.64 40.36 18 60.51 27.11zm-449.52-202c21 8.35 47.5 19.08 74.15 29.47 37.88 14.76 75.73 29.51 111.56 49 21.66 11.76 43.68 22.82 65.45 34.37 20.38 10.81 40.6 21.94 61 32.75 21.07 11.19 42.13 22.43 63.43 33.18 21.12 10.66 42.52 20.77 63.86 31 1.11.53 2.76-.05 4.16-.12-.87-1.24-1.47-3.07-2.66-3.64-19.27-9.07-38.72-17.77-57.91-27s-38.22-18.82-57.16-28.55c-21.93-11.27-43.7-22.85-65.51-34.34-21.28-11.21-42.43-22.67-63.84-33.64-19.83-10.16-39.56-20.65-60-29.48-25.53-11-51.69-20.62-77.65-30.65-21.56-8.34-43.16-16.39-58.88-22.34z"/>
</svg>