<svg xmlns="http://www.w3.org/2000/svg" viewBox="0 0 92.34 118.76">
  <defs>
    <clipPath id="a" transform="translate(-18.91 -20.32)">
      <path fill="none" d="M18.76 106.1L19.06 0l92.33 53.31-.3 106.1-92.33-53.31z"/>
    </clipPath>
  </defs>
  <g clip-path="url(#a)" style="clip-path:url(#a)">
    <path fill="#3c46fb" d="M46.01 90.55C27.31 79.75 9.9 58.1.58 34.06l-.56-1.38.56-.78c9.43-13.22 26.91-14.75 45.61-3.95s36.12 32.44 45.44 56.48l.56 1.42-.56.78c-9.43 13.21-26.91 14.72-45.62 3.92m.31-84.22C20.82-8.38.09 3.44 0 32.73s20.52 65 46 79.7 46.24 2.91 46.32-26.39-20.52-65-46-79.71"/>
    <path fill="#fff" d="M46.09 79.08c-9.44-5.47-17.09-18.71-17-29.59s7.67-15.25 17.13-9.81 17.11 18.7 17.08 29.57-7.73 15.29-17.21 9.83m.08-51.13C27.49 17.15 10.01 18.68.58 31.86l-.56.78.56 1.42c9.32 24 26.73 45.69 45.43 56.49s36.19 9.29 45.62-3.92l.56-.78-.56-1.42c-9.32-24-26.73-45.68-45.44-56.48"/>
    <path fill="#3c46fb" d="M46.22 39.68c-9.46-5.44-17.13-1.06-17.13 9.81s7.56 24.12 17 29.59 17.15 1.07 17.19-9.81-7.6-24.11-17.06-29.59"/>
  </g>
</svg>