<svg xmlns="http://www.w3.org/2000/svg" viewBox="0 0 116.56 116.49">
  <path fill="#3c46fb" d="M99.39 17.18A55.83 55.83 0 0058.24 0C42.2 0 28.52 5.68 17.1 17.18A56.1 56.1 0 000 58.33a55.9 55.9 0 0017.1 41.14 56.65 56.65 0 0041.14 17 56.27 56.27 0 0041.15-17 55.9 55.9 0 0017.17-41.14q0-24.06-17.17-41.15zM82.86 83a34 34 0 01-24.62 10.08A33.8 33.8 0 0133.54 83a33.61 33.61 0 01-10.29-24.7 33.71 33.71 0 0110.29-24.76 33.25 33.25 0 0124.7-10.29 33.41 33.41 0 0124.62 10.29 33.62 33.62 0 0110.29 24.71A33.44 33.44 0 0182.86 83z"/>
</svg>