<svg xmlns="http://www.w3.org/2000/svg" viewBox="0 0 429.16 576.42">
  <path fill="#f4cfef" d="M45 355.38a322 322 0 008.85 50.55c3.84 15.28 5 29 12.58 43.14 14.18 26.51 33.41 44.22 52.06 66.87 14 17 30.3 44 52.35 51.41 29 9.81 57.44 7.17 86.1-3.7 19.33-7.33 60.16-40.31 82-61.77 11-10.83 16.68-15.92 26.93-27.49 6.09-6.88 12.13-14 15.66-22.52 4.74-11.38 4.57-24.11 4.33-36.44-.88-44.86 4.53-85.34 3.65-130.2-.38-19-7.06-42.46-8.1-61.48-.71-13-1.82-26.37-7.42-38.14-5.38-11.34-14.5-20.37-22.34-30.16-10.65-13.45-19.42-28.86-32.74-39.81C306.67 105.58 291.36 100 276 96.08a246.59 246.59 0 00-65.87-7.59c-12.24.24-24.72 1.47-35.93 6.4-11 4.85-20.19 13-29.16 21l-42 37.51c-8 7.18-16.11 14.4-22.93 22.75-24.43 29.9-30.12 70.54-33.49 109C44.56 308.52 43 332 45 355.38z"/>
  <path fill="#b394ff" d="M186 346.73c3.35-12.93 3.68-26.43 3.46-39.77-.09-6.06-.33-12.27-2.63-17.88a25.9 25.9 0 00-15.65-14.58c-15.19-5-34.25 4.18-46.66-5.89-7.59-6.16-9.08-17.16-8.36-26.9.56-7.66 2.66-15.79 1.7-23.48a25.57 25.57 0 014.14-18.35c3.2-5 7.94-10.09 7-16a5.31 5.31 0 00-1.38-3c-1.94-1.87-5.12-1.09-7.63-.1-13.5 5.3-26.29 13.36-34.91 25-4.15 5.63-7.24 11.95-10.17 18.3-4.68 10.13-9 20.54-10.93 31.54-1.5 8.71-1.37 17.9 1.38 26.36 1.3 4 2.58 6.59 2.69 10.75a113.54 113.54 0 001.85 16.33 2.88 2.88 0 00.59 1.54 3.18 3.18 0 002.09.68c9.17.84 17.37 7 26.58 7 3.14-10.55 7.66-22.6 17.68-28.38 3.19-1.84 7.55-2 11.2-2.35s7.43-.34 10.45 1.62.54 12.46-1.68 15.3c11.74 0 25.37 0 25.5 10.33l.83.27a6 6 0 005.08 2.89 11.13 11.13 0 002.7-.31l4 1.32-3.2-1.5c1.44-.38 2.87-.89 4.32-1.24 2.6-.64 5.7-.59 7.49 1.39a8.34 8.34 0 011.7 4.9c1 10.12-1 18.12-7.13 26.26a80.2 80.2 0 01-32.91 25.67c-4.31 1.82-9.8 5.39-7.93 9.67 1 2.23 3.65 3.17 6.07 3.47 8 1 16-2.4 22.26-7.36 10.41-8.16 17.07-20.58 20.41-33.5zM389.57 380.31c-.14-26.93-.3-54-4.51-80.59s-12.7-52.94-28.19-75c-8-11.39-18.32-21.83-31.48-26.38-8.84-3.06-20.87-1.91-24.57 6.68-3.43 8 2.46 16.6 6.47 24.34a60.12 60.12 0 016.71 25.48c.17 4.65-.5 9.9-4.18 12.75-3.31 2.57-7.93 2.32-12.11 1.94l-21.84-2c-26.11-2.36-45.9 18.58-45.78 44.55 0 12.55-.48 36.71-.86 49.26-.72 23.41 10.46 70.45-24.73 60.06-4.53-1.33-14.35-6.71-18.89-4.55-5.81 2.76-4.59 9.73.28 12.8 2.54 1.61 6.32.73 9.12 1.76a27.14 27.14 0 0115.31 14.87 20.23 20.23 0 011.33 10.53 20.55 20.55 0 01-8.61 13.7c-6.58 4.5-15.08 4.73-23 4.76-7.56 0-22.78-3.87-28.59 2-4.76 4.82-1.83 10.19 4.54 11.09 6.8 1 13.62-2.11 20.33-2.55L205.1 484c5.35-.35 11-.66 15.87 1.48 12.5 5.44 13.74 22.29-2.57 20.74-8.67-.83-19-4.4-27.57-2.89-2 .36-3.93 14.77-2.71 16.86 3.46 5.92 7.37 1.6 13 .7 16.58-2.65 37.27 1.31 53.23 5.82a3.05 3.05 0 011.72.94 2.68 2.68 0 01.34 1.79c-.42 5.53-6.95 13.88-10.57 17.79-9.69 10.43-23.47 15.7-37.29 17.82-9.85 1.52-30.63-5.61-37.72 2.44a101.78 101.78 0 0036.27 8.87c29.76 1.14 56.69-12.38 80.59-29.51 22.22-15.91 36.55-32.83 57.61-50.21 31.38-25.92 39.82-54.19 43.64-94.72.71-7.18.67-14.4.63-21.61zm-110.22-76.37c4.22-2.82 8.76-5.46 14-5.41 5.88.07 11.12 3.5 16 6.81l4.75 3.24a4.66 4.66 0 011.66 1.58c.68 1.33-.07 3-1.17 4-2.29 2.1-5.79 2.33-8.82 1.61s-5.8-2.21-8.75-3.22c-7.1-2.18-15-2-22.33-1.57 1.15-2.77 2.15-5.36 4.66-7.04zM269 332.12a63.51 63.51 0 0025.85 6.58 16.34 16.34 0 001.85 0l-1.87-.12 4.55-.68a5.59 5.59 0 01-2.68.8l2 .13c-4.88 1.79-10.28 1.46-15.42.73-5.91-.83-12.28-2.5-15.78-7.32 1.13.09.42-.65 1.5-.12zm-9.1 82.32c-.73 1.85-3.18 2.42-5.12 2s-3.65-1.61-5.55-2.22a10.46 10.46 0 00-11.32 3.69 17.23 17.23 0 014.5-17.1c2.6-2.52 6.41-4.19 9.88-3.13a10 10 0 015.86 5.73 29.76 29.76 0 011.85 8.19 5.8 5.8 0 01-.12 2.84zm49.59-4.74c-.86 7.68-2.56 34.5-13.85 35.56a7.87 7.87 0 01-6.08-2.51 23.4 23.4 0 01-3.8-5.61c-3.92-7.18-8.35-14.28-11.82-21.68-2.16-4.62-2.46-9.26-4.1-14-1.44-4.16-3.44-8.19-5.27-12.18-.77-1.67-7.72-15.76-5.16-15l22.29 13.09a94.87 94.87 0 008.78 4.8 30.88 30.88 0 006.73 2.28c5.45 1.08 10 .7 12.06 7.21.8 2.56.51 5.34.2 8.04zm20.13-39.88a34.21 34.21 0 01-15 10.22c-6.19 1.92-12.86 1.35-19.26.32-11.35-1.81-23.43-5.32-32.2-13.11-4-3.54-5.24-7.24-7.87-11.58-.08-.13-7.87-14-3.86-11.76a64.55 64.55 0 0054 3.74A201.93 201.93 0 00341 329.46c1-.69 2.55-1.33 3.39-.41a2.57 2.57 0 01.45 1.85c-.2 12.45-5.78 28.36-15.24 38.92z"/>
  <path fill="#b394ff" d="M178.63 389.5c-5.36 3.35-7.9 9.67-11.68 14.75-5.1 6.85-13.82 12.11-15.6 21 2.7-.66 26.22-11.38 26.55-10.1-1.11-4.29.66-8.72 1.9-13s1.79-9.36-1.17-12.65zM158.47 332.47a14.86 14.86 0 004.66-4.26 18.88 18.88 0 01-5.65 2.52s-13.41 5.44-23.45 7.32c-.58.32.06.54-.6.55 1.08.93 2.66.95 4.09.85a44.4 44.4 0 0020.95-6.98z"/>
  <path fill="#8437fd" d="M108 318.22a51.32 51.32 0 0111.7-11 41.34 41.34 0 017.19-3.93 35.73 35.73 0 017.94-2.28 50.14 50.14 0 0131.46 5.27l-.39.92a75 75 0 00-15.21-3.35 57.84 57.84 0 00-15.33.42 40.63 40.63 0 00-14.16 5.32 80.61 80.61 0 00-12.47 9.34zM252.84 317a29.93 29.93 0 0112.49-12 39.24 39.24 0 0117-4.49 50 50 0 0117.26 2.49 65.46 65.46 0 0115.53 7.54l-.48.88a110.94 110.94 0 00-15.84-5.75 57.13 57.13 0 00-16.39-2.08 41.26 41.26 0 00-15.9 3.69 33.29 33.29 0 00-12.83 10.22z"/>
  <path fill="#f4cfef" d="M195.75 467.08c1.42-.39 2.84-.78 4.26-1.19a14.83 14.83 0 014.6-.8c2 .09 3.82 1 5.73 1.46 4.36 1.15 9 .38 13.47.56s9.5 1.76 11.48 5.81c-9-2.38-18.11 2.44-27.41.49a63.19 63.19 0 00-7.29-1.48c-3.91-.33-7.78.75-11.63 1.52a71.62 71.62 0 01-20.29 1.24c4.5.4 9.36-2.37 13.54-3.7 4.46-1.43 9.01-2.66 13.54-3.91zM119 322.29c4.81 1.39 9.6 2.74 14.48 3.9a39.53 39.53 0 007.39 1.34 39.66 39.66 0 009.92-1.14l19.84-4c1-.2 2.21-.52 2.64-1.48 1.83-4-13.78-8.31-16.09-9-6.82-1.92-14.1-2.65-21-1a44.42 44.42 0 00-11.31 4.75c-2.23 1.25-7.7 3.39-9 5.65zM269.87 328.29c14.55 4.55 30.28.11 44.56-5.23-6-3.51-12.14-7-18.74-9.3-13.83-4.78-25.71.48-38.63 5.92-5.15 2.17-2.69 3.6.65 4.67 4.05 1.3 8.09 2.65 12.16 3.94z"/>
  <path fill="#8437fd" d="M157.19 311.54c-6.82-2-14.1-2.78-21-1a43.39 43.39 0 00-11.31 5c-2.23 1.32-7.7 3.57-9 5.95l3.1.95 3.4 1c-.25-1.82 2.65-2.74 4-3.19.67-.23 8-2.47 8-2.64 1.08 3.57 1.8 7.1 4.48 9.32a8.72 8.72 0 001.44.94l.63.06a37.53 37.53 0 009.92-1.2l3.63-.76a22.08 22.08 0 002-3.66c.15-.44 1.25-5.27 1-5.28 2.6.17 9.42 3.16 6.68 6.56-.11.14-.23.26-.35.39l6.79-1.44c1-.22 2.21-.55 2.64-1.56 1.87-4.25-13.74-8.76-16.05-9.44zM295.69 313.44c-13.83-5-25.71.5-38.63 6.22-5.15 2.28-2.69 3.78.65 4.91 1.42.47 2.83 1 4.25 1.45a4.38 4.38 0 01-.06-1.16c.29-4 6.62-4.82 9.5-5.09.11 0 .58 2.16 1.27 4.62a14.31 14.31 0 001.59 4.1 17 17 0 001.26 1.6 52.17 52.17 0 0019.38-.74c2-2.94 4.44-5.72 4.52-9.54.32.09 3.74 2.41 4 2.6.42.32 2.66 2.33 4.09 3.37q3.51-1.23 6.93-2.57c-6.05-3.69-12.15-7.37-18.75-9.77z"/>
  <path fill="#8437fd" d="M428.29 316.11c-.49-2.75-1.23-5.44-2-8.13-5.59-20-8.81-39.09-8.74-60 0-11.43-1.7-23-.77-34.34l4.37 6.72c1.27-12.84-3.79-25-7.43-37.07s-3.89-24.2-8.51-36a272 272 0 00-12.32-25.94c-9.76-18.82-19.76-38-34.71-53A428 428 0 00311 27.13C293.8 14.38 275 2 253.64.22c-31.5-2.64-52.88 19.27-79.77 29.12-.69-.54-1.37-1.08-2.08-1.59-12.12-8.9-25.3-1.74-40.29-.62-15.76 1.18-28.73 6.39-41.5 15.4-4.45 3.13-9.87 5.41-13.58 9.36-5 5.36-6.61 13.43-11 19.3-5.38 7.21-14 11.32-19.91 18.14-3.23 3.74-5.51 8.19-7.76 12.59l-11.44 22.37c-3.9 7.62-7.85 15.38-9.44 23.8-2.91 15.42 2.38 31.36.49 46.94-1.84 15.25-10.53 28.16-14.64 42.71-6.42 22.76-.48 37.6 7.51 58.16 2.5 6.45 3.63 13.33 4.74 20.16l3.3 20.22c.48 3 .86 6 1.18 9.19-2 5.09-4.26 10.14-7.68 14.46 1.73-.73 5.47-1.91 8.68-3.28.08 1 .17 2 .25 3Q10.76 372.12 0 383.92a78.24 78.24 0 0022.28-9.69c.07.53.15 1.07.24 1.6l-8.83 11.25 10.18-4c2.4 10.77 6.57 20.73 14.65 28.42-3.14-3 2.9-4.88 5.53-3.3 3.56 2.13 5.56 9.15 6.78 12.81q1.64 4.89 3.41 9.74A54.65 54.65 0 0061 447.82q3.57 8.28 7.63 16.34c1 1.93 1.8 4 2.67 6.11-1.45 4.36-5 8.1-9.5 9.08a31.77 31.77 0 0117 1.68q1 .84 2.1 1.62a62.83 62.83 0 01-24 34.05 73.39 73.39 0 0039-22.09c1.34 2.25 6.47 1.18 8.95 2 0 0-7.12-13.07-12.91-20.25-.34-1.56-.62-2.83-.84-3.5-1.54-4.65-3.6-9.19-5.2-13.84-3.2-17.85-5.31-45-6.35-54.81-1.49-14.13-10.41-51.33-9.67-61s6-35 5.21-60.24c-.32-10.63-4.51-17.35-.21-27.08-.89.69-1.75 1.42-2.6 2.16 0-7.25.64-14.46 3.83-20.85a51.81 51.81 0 015-9.09c.13.94.29 1.88.51 2.8l2.38 6.61a102.83 102.83 0 004.84 47.36A49.69 49.69 0 0191.28 253c4.19 9.83 8.56 19.62 11.39 29.89a14.43 14.43 0 00-2.76 3.68 16.69 16.69 0 009.76 8.22c8.34 2.79 21.35.42 30.14-.16 5.43-.36 10.88-.84 16.28-.79a81.71 81.71 0 0113.16 1.16c3.65.63 11 4.36 14.39 3.53 7.86-1.92 4.64-15.05 5.58-20.44a23.32 23.32 0 01-5.69 7.25 7.35 7.35 0 00-1-8.15 10.37 10.37 0 01-5.13 3.75 5.67 5.67 0 00.22-3.21l-1.7.19c-5.65.65-11.35-1.77-16.86-2.64-6.6-1.05-13.37-.43-20.12 0-9.6.61-25.95-.49-34.8 6.34a195.31 195.31 0 003.65-19.6c1.4-11.5 1.06-26 8.34-35.63a134.41 134.41 0 0114.3-15.55 71.5 71.5 0 003.12 27.23 15.92 15.92 0 013.68-3.46A79 79 0 01162.06 181c8.31-7.64 18.58-13.92 27-21.41 5.69-3.85 10.58-8.19 13.59-12.85s4.39-10.16 5.4-15.61c.11-.61.21-1.23.31-1.85a37.28 37.28 0 012.45 3.41 46.64 46.64 0 015.67 33.74c-2.9 13.26-11.48 24.55-16 37.35-4.09 11.5-6.69 23.3-3.16 34.64a15.71 15.71 0 012.44-2.24c.75-6.7 3.15-14.32 4-18.52a54.47 54.47 0 0111.15-24.87c5.67-7.29 12.14-14.15 16-22.55a40.89 40.89 0 003.44-17.24 89.7 89.7 0 014.15 25.36 62.79 62.79 0 006.1-39 44.93 44.93 0 017.34 3c9.93 5.21 11.9 18.47 16.65 28.15a265.74 265.74 0 0013.19 23.77 252.87 252.87 0 0022.86 31 108.86 108.86 0 0015.1 16 227.45 227.45 0 0030.12 24.51c.61.42 1.22.82 1.84 1.22 5.49 5.68 9.74 12.1 11.06 19.69 3 17.1 3.72 42.75 3 68.24s-3.72 63.62-5.21 76.92S349 491.18 342.28 501c0 0 16.65-11.34 27.83-23.19l.08-.09a178.32 178.32 0 0019.46-17.17q-.9 2.82-1.79 5.65c1.95-6.16 9.53-14.5 12.75-20.71 4.47-8.62 7.66-17.6 10.83-26.84 5.19-15.11 10.39-30.31 13-46.07 2.39-14.47 1.83-28.91 1.08-43.48l3.33 8c.33-7.02.67-14.1-.56-20.99z"/>
  <path fill="#8437fd" d="M192.33 429.72c4.34 1.65 11.15.34 14.8 2.4a36.43 36.43 0 01-8.94-7.12c-2.27-2.5-4.27-5.36-7.16-7.11-4.47-2.69-11.73-3.47-9.85 2.77 1.44 4.73 6.9 7.44 11.15 9.06zM252.75 421a3.75 3.75 0 00-2.4-.87h-.84a12.89 12.89 0 00-3.65.48 25.71 25.71 0 00-3.74 1.52 63.33 63.33 0 00-14.28 8.57 25.85 25.85 0 0011.93.83c2.48-.53 18.41-5.13 12.98-10.53zM327 283.44c-9.1-4.67-19.47-9.66-20.9-10.11a97.38 97.38 0 00-45.78-3.46c-5.1.89-10.37 2.37-14.05 6a17.63 17.63 0 01-4.27-4.37l-.83 9.22a18.51 18.51 0 01-7.74-7.44 29.76 29.76 0 0013.85 21.8c5.28 3.23 7.84-2.44 13.73-4.32a64.37 64.37 0 0140.53.57c4.72 1.66 9.27 3.87 14.14 5a40.29 40.29 0 0015.35.61 16.38 16.38 0 0010.13-5.27c.46-.48-6.37-4.24-14.16-8.23zM226.47 472.07c-3.74.11-7.45.85-11.19.78-3-.05-6-.63-9-.86-5.52-.41-11.06.35-16.55 1.11-10.17 1.41-21.55.39-31.24 4 6.87 8.32 19.65 5.41 29.16 5.55l74.23 1.12a10.3 10.3 0 005.15-.81c1.54-.85 2.59-2.85 1.78-4.41-14.22 2.1-27.98-6.87-42.34-6.48zM210.25 498.81c-8.1 0-16-1.22-24-1.75 2.67 1.55 5.4 3.33 8.17 4.81 7.31 3.89 16.06 3.91 24.26 2.76 6-.84 12.6-2.73 15.63-8-1.67 2.86-20.92 2.17-24.06 2.18z"/>
  <g opacity=".72">
    <circle cx="287.72" cy="325.76" r="43.86" fill="#8676f5"/>
    <circle cx="143.48" cy="325.76" r="43.86" fill="#fdc779"/>
  </g>
  <path fill="none" stroke="#8437fd" stroke-linejoin="round" stroke-width="5" d="M186.26 330.2c-.45-8.72 4.14-19.52 11-24.32 9.82-6.84 28.2-6.56 37.48.94 6.25 5.05 9.09 13.62 9.09 24.36"/>
  <path fill="none" stroke="#8437fd" stroke-linejoin="round" stroke-width="8" d="M99.2 318.49s-26.73-9.31-33.49-12.71M330.9 317.92l36.32-16.12"/>
  <circle cx="287.72" cy="326.8" r="43.86" fill="none" stroke="#8437fd" stroke-linejoin="round" stroke-width="5"/>
  <circle cx="142.5" cy="326.8" r="43.86" fill="none" stroke="#8437fd" stroke-linejoin="round" stroke-width="5"/>
</svg>