<svg xmlns="http://www.w3.org/2000/svg" viewBox="0 0 704.52 510.41">
  <defs>
    <linearGradient id="a" x2="704.52" y1="255.21" y2="255.21" gradientUnits="userSpaceOnUse">
      <stop offset="0" stop-color="#7f37d7"/>
      <stop offset=".47" stop-color="#591eb8"/>
      <stop offset=".99" stop-color="#320598"/>
    </linearGradient>
  </defs>
  <path fill="url(#a)" d="M447.42 138.51q4.92 21.88 9.86 43.78c1.18 5.19 2.55 10.34 3.72 15.53.29 1.31.66 3 .11 4-.86 1.59-2.48 2.76-3.78 4.11-1.11-1.11-2.79-2-3.25-3.37-5.61-16.17-11.17-32.35-16.46-48.62-3.06-9.45-5.61-19.06-8.39-28.6l-1.92.53c2.43 10 4.74 20.11 7.3 30.12q6.17 24.06 12.62 48c1.19 4.37.38 6.62-4.54 7.27-2.28.3-4.6 1.93-6.46 3.48-3.85 3.21-6.9 7.78-11.2 10-9.8 5-19.91 9.75-30.39 13-7.13 2.22-15.09 1.86-22.69 2.49-7.78.66-15.59 1.06-23.38 1.69-5.49.45-11 1.87-16.42 1.47-7.33-.54-13 1.84-18.26 6.55-8.35 7.49-16.83 14.84-25.3 22.2a32.46 32.46 0 01-4.77 3.47c-11.94 7-45.66 7.72-57.8 1.18-4.85-2.61-9.51-5.61-14.35-8.26a27.29 27.29 0 00-10.41-3.53l21.1 17.27c-5.08 4.38-10.24 4.78-14.85 1.11-6.79-5.42-13.45-11-20.18-16.46a8.59 8.59 0 00-5.47-2.3c4.66 5.45 9.36 10.89 14 16.38 5.23 6.21 5.22 7.52-2.25 10.41-18.53 7.19-37.19 14-55.92 20.69-4.69 1.67-8.11 3.84-10.76 8.33-6.64 11.23-16.7 19.29-26.93 27.1-9.08 6.95-19.12 13-26.79 21.32a111.64 111.64 0 00-19.66 29.05c-11.34 24.94-21.08 50.6-31.6 75.91-4.55 10.92-9.37 21.73-14.25 32.51-.72 1.6-2.46 2.73-3.73 4.08-1.31-1.6-3.57-3.15-3.69-4.85-.3-4.17-.7-8.88.85-12.56C12.81 465.4 24.64 437.86 37 410.58c13.53-29.81 27.17-59.3 34.26-91.72 5.89-26.91 19.51-51 34.85-74 19.39-29.11 48.25-45.19 78.9-58.91 9.51-4.26 20.06-6.34 29.25-11.12 7.51-3.92 14.06-10 20.41-15.77 14.71-13.41 28.09-28.45 43.77-40.57 18.33-14.16 38-26.79 58-38.51C380.87 54 428.13 34.12 477.2 18.7c15-4.73 30.39-8.47 45.7-12.27 4.13-1 8.63-.51 12.94-.93 16.85-1.64 33.68-3.46 50.54-5a137.68 137.68 0 0115.34-.5c16.71.35 33.44.57 50.13 1.42C662.61 2 673.32 3.54 684 4.68c4.51.48 9 1.28 13.49 1.64 7 .56 7.51 1.16 6.71 8.4-1.09 9.91-6.42 18-12.51 25.06-7.38 8.59-16.21 15.92-24.43 23.78a3.09 3.09 0 01-1.5.91c-11.14 1.42-18.47 9.51-27.43 14.91-9.65 5.81-21 8.67-31.44 13.3a54.44 54.44 0 00-11.54 7.6c-5 4-9.63 8.59-14.57 12.74-8.29 7-16.71 13.78-25.06 20.67-1.37 1.13-2.63 2.41-4.06 3.43-6.07 4.33-7.23 4.1-12.27-1.34a117.88 117.88 0 01-22.88-36.32c-.7-1.71-3-2.79-4.5-4.16-.4 1.92-1.58 4.1-1.06 5.72 4.94 15.37 9.83 30.77 15.45 45.89 4 10.9 3.94 12.76-7.44 21.5-7.29-17.55-14.41-34.71-21.53-51.88l-2.57 1c.71 2.21 1.42 4.43 2.14 6.64 4.82 14.78 9.69 29.55 14.43 44.35 1.27 3.94.27 6.13-4.32 7.8-7.72 2.79-15.07 6.74-22.31 10.69-3.83 2.09-6.45 1.81-7.93-2.23-3.3-9-6.35-18.18-9.44-27.29-1.25-3.7-2.35-7.44-4.87-11a36.34 36.34 0 00.65 4.68c3.41 12.55 6.89 25.08 10.35 37.62.37 1.33 1.18 2.74 1 4a31.46 31.46 0 01-2.05 5.68c-1.51-1.16-3.89-2-4.41-3.52-5.82-17-11.35-34-17-51.05-.61-1.86-1.3-3.69-2-5.54q-1.65-7-3.29-14l-2.31.61q2.01 6.74 3.92 13.54z"/>
</svg>