<svg xmlns="http://www.w3.org/2000/svg" viewBox="0 0 36.62 49.02">
  <path fill="#18154c" d="M32 49H11.13a7.35 7.35 0 01-.48-1.22A38.39 38.39 0 005 34.11L1 27.8c-1.25-2-1.29-3.54-.11-4.72s3.78-1.29 5.31-.35a10.38 10.38 0 011.68 1.47c.48.46.91 1 1.62 1.75.06-.77.13-1.24.14-1.71V5.67a13.69 13.69 0 01.06-2A4.16 4.16 0 0114.17 0a4.06 4.06 0 013.77 4.07c.08 2.19 0 4.38 0 6.57v2.47c2.85-.9 5-.3 6.42 2.39 3.08-.81 5.42 0 6.56 3.07h1.23c2.72 0 4.23 1.33 4.33 4.1.1 2.94-.11 5.89.07 8.83C37 37.89 34.07 43.32 32 49zm-9.2-24.44c0-.9-.09-1.56-.09-2.22a36.43 36.43 0 010-4.31c.29-2.03-1.29-3.53-2.42-3.44-1.48.12-2.28 1.3-2.31 3.54V23.19l-1.79-.14v-2.12-15a6.27 6.27 0 00-.35-2.65A3.24 3.24 0 0014 1.92 1.65 1.65 0 0012 3a6.65 6.65 0 00-.44 2.38V29.2a2.23 2.23 0 01-2.82-.89A26.73 26.73 0 005.7 25a3.66 3.66 0 00-2.22-.79c-1.43 0-1.88.86-1.16 2.09s1.72 2.66 2.57 4c3.16 4.9 6.11 9.88 7.35 15.68a6.21 6.21 0 00.49 1.14h17.86c.72-1.86 1.42-3.68 2.13-5.5a23.13 23.13 0 001.89-10.42c-.15-1.8 0-3.62 0-5.44 0-1 .05-2 0-2.94-.07-1.39-.92-2.35-2-2.33S31 21.28 31 22.77v3.55l-1.84-.14c0-.63-.09-1.08-.09-1.53 0-1.66.07-3.33 0-5a2.51 2.51 0 00-2.41-2.53c-1.22 0-1.94.84-2 2.5-.07 1.36 0 2.72 0 4.08a4.65 4.65 0 01-.17.75z"/>
  <path fill="#fff" d="M22.8 24.56l1.58-.09a4.65 4.65 0 00.17-.75c0-1.36-.05-2.72 0-4.08.09-1.66.81-2.48 2-2.5A2.51 2.51 0 0129 19.67c.1 1.65 0 3.32 0 5 0 .45.05.9.09 1.53l1.84.14v-3.55c0-1.49.61-2.26 1.62-2.28s1.91.94 2 2.33c.05 1 0 2 0 2.94 0 1.82-.12 3.64 0 5.44a23.13 23.13 0 01-1.89 10.36c-.71 1.82-1.41 3.64-2.13 5.5h-17.8a6.21 6.21 0 01-.49-1.14c-1.24-5.82-4.19-10.8-7.35-15.7-.85-1.33-1.76-2.63-2.57-4s-.27-2.09 1.16-2.09A3.66 3.66 0 015.7 25a26.73 26.73 0 013 3.36 2.23 2.23 0 002.82.89v-2.34V5.38A6.65 6.65 0 0112 3a1.65 1.65 0 012-1.08 3.24 3.24 0 011.84 1.4A6.27 6.27 0 0116.19 6v17.16l1.79.14v-3.13-2c0-2.24.83-3.42 2.31-3.54C21.42 14.5 23 16 22.74 18a36.43 36.43 0 000 4.31c-.03.69.02 1.35.06 2.25z"/>
</svg>