<svg xmlns="http://www.w3.org/2000/svg" viewBox="0 0 182.3 90.44">
  <path fill="#3c46fb" d="M116.57 66.01h50.76v3.14h-50.76z"/>
  <path fill="none" stroke="#3c46fb" stroke-miterlimit="10" stroke-width="4" d="M174.92 44.87l-8.33 8.33-8.34-8.33-8.34 8.33-8.33-8.33-8.34 8.33-8.33-8.33-8.34 8.33"/>
  <path fill="#3c46fb" d="M116.57 77h23.01v3.14h-23.01zM145.13 77h13.52v3.14h-13.52z"/>
  <path fill="#3c46fb" d="M81.43 1L182.3 34.22v56.22h-75.35L1 58.43V1h80.43z" opacity=".2"/>
  <path fill="#fff" stroke="#3c46fb" stroke-miterlimit="10" stroke-width="2" d="M1 1h80.43v57.43H1z"/>
  <path fill="#3c46fb" d="M11.2 34.22h50.76v3.14H11.2zM61.21 24.24l-8.33-8.34-8.34 8.34-8.34-8.34-8.33 8.34-8.34-8.34-6.92 6.93L9.78 20l9.75-9.75 8.34 8.33 8.33-8.33 8.34 8.33 8.34-8.33 8.33 8.33 6.92-6.92 2.83 2.83-9.75 9.75zM11.2 45.21h23.01v3.14H11.2zM39.75 45.21h13.52v3.14H39.75z"/>
  <path fill="#3c46fb" d="M106.95 34.22h75.35v56.22h-75.35z" opacity=".11"/>
</svg>