<svg xmlns="http://www.w3.org/2000/svg" viewBox="0 0 314.95 145.4">
  <defs>
    <clipPath id="a">
      <circle cx="52.43" cy="112.39" r="15.1" fill="none"/>
    </clipPath>
    <clipPath id="b">
      <circle cx="19.45" cy="76.32" r="15.1" fill="none"/>
    </clipPath>
    <clipPath id="c">
      <circle cx="26.43" cy="31.3" r="15.1" fill="none"/>
    </clipPath>
  </defs>
  <g style="isolation:isolate">
    <circle cx="52.34" cy="112.44" r="19.45" fill="#fff" opacity=".4"/>
    <path fill="none" stroke="#fff" stroke-miterlimit="10" stroke-width="2" d="M52.43 114.46l30.79-57.53-63.77 21.46M21.64 27.71l61.58 29.22"/>
    <circle cx="52.43" cy="112.39" r="15.1" fill="#fff"/>
    <g fill="#3c46fb" clip-path="url(#a)">
      <path d="M52.43 114.46c-2.64 0-4.78-2.53-4.78-5.66s2.14-5.66 4.78-5.66 4.79 2.53 4.79 5.66-2.14 5.66-4.79 5.66z"/>
      <ellipse cx="52.43" cy="130.97" rx="15.15" ry="14.43"/>
    </g>
    <circle cx="19.45" cy="76.32" r="15.1" fill="#fff"/>
    <g fill="#3c46fb" clip-path="url(#b)">
      <path d="M19.45 78.39c-2.64 0-4.79-2.54-4.79-5.67s2.15-5.66 4.79-5.66 4.79 2.54 4.79 5.66-2.15 5.67-4.79 5.67z"/>
      <ellipse cx="19.45" cy="94.9" rx="15.15" ry="14.43"/>
    </g>
    <circle cx="19.45" cy="76.32" r="19.45" fill="#fff" opacity=".4"/>
    <circle cx="26.43" cy="31.3" r="19.45" fill="#fff" opacity=".4"/>
    <circle cx="19.45" cy="76.32" r="15.1" fill="#fff"/>
    <g fill="#3c46fb" clip-path="url(#b)">
      <path d="M19.45 78.39c-2.64 0-4.79-2.54-4.79-5.67s2.15-5.66 4.79-5.66 4.79 2.54 4.79 5.66-2.15 5.67-4.79 5.67z"/>
      <ellipse cx="19.45" cy="94.9" rx="15.15" ry="14.43"/>
    </g>
    <circle cx="26.43" cy="31.3" r="15.1" fill="#fff"/>
    <g fill="#3c46fb" clip-path="url(#c)">
      <path d="M26.43 33.37c-2.64 0-4.79-2.54-4.79-5.66s2.15-5.66 4.79-5.66 4.79 2.53 4.79 5.66-2.15 5.66-4.79 5.66z"/>
      <ellipse cx="26.43" cy="49.88" rx="15.15" ry="14.43"/>
    </g>
    <path fill="#fff" d="M226 82.25A76 76 0 00228.09 94c.89 3.54 1.16 6.72 2.91 10 3.29 6.13 4.57 5.77 8.89 11 3.24 3.94 11.91 12.74 16.77 15.07 6.9 3.3 13.2 3.25 18.44.44 4.21-2.27 14.68-9.53 19.74-14.5 2.56-2.51 3.11-3.48 5.48-6.16a19.45 19.45 0 003.63-5.21C305 102 305 99 305 96.15c-.21-10.38 1.05-19.75.84-30.13-.08-4.41-1.63-9.83-1.87-14.23-.17-3-.42-6.1-1.72-8.83s-3.36-4.71-5.17-7c-2.49-3.12-4.51-6.68-7.6-9.21a25.06 25.06 0 00-9.93-4.53 57.14 57.14 0 00-15.24-1.76 21.74 21.74 0 00-8.37 1.54 26.8 26.8 0 00-6.75 4.87l-9.72 8.68a47.19 47.19 0 00-5.31 5.27c-5.65 6.92-7 16.32-7.75 25.22a93.91 93.91 0 00-.41 16.21z"/>
    <path fill="#fff" d="M291.91 85.6a7.93 7.93 0 01-3.48 2.4 9.87 9.87 0 01-4.43 0 14.66 14.66 0 01-7.45-3 9.7 9.7 0 01-1.82-2.68s-1.82-3.24-.89-2.72a14.93 14.93 0 0012.49.87 46.57 46.57 0 008.26-4.22c.24-.15.59-.3.78-.09a.63.63 0 01.11.43 15 15 0 01-3.57 9.01zM283.52 69.1a7 7 0 013.7 1.57l1.1.75a1 1 0 01.38.37.82.82 0 01-.27.93 2.29 2.29 0 01-2 .37 21.34 21.34 0 01-2-.75 14.76 14.76 0 00-5.23-.34 3.29 3.29 0 011.08-1.63 5.78 5.78 0 013.24-1.27z"/>
    <path fill="#141b3a" d="M253.29 75.87a22.39 22.39 0 01-6.65 2.37c-.13.08 0 .13-.14.13a1.3 1.3 0 00.95.2A10.26 10.26 0 00252.3 77a3.62 3.62 0 001.08-1 4.52 4.52 0 01-1.31.58"/>
    <path fill="#141b3a" d="M262.52 34a9.88 9.88 0 001.25-3.61c1.61-8.76-1.21-18.65-8.39-23.92-2.8-2.06-5.85-.4-9.32-.14a18.44 18.44 0 00-9.61 3.56 19.24 19.24 0 00-3.14 2.11c-1.16 1.24-1.53 3.11-2.54 4.47-1.25 1.67-3.25 2.62-4.61 4.19a14.34 14.34 0 00-1.8 2.92l-2.65 5.18a20.57 20.57 0 00-2.18 5.51c-.68 3.57.55 7.26.11 10.86s-2.44 6.52-3.39 9.89c-1.49 5.26-.11 8.7 1.74 13.46a23.07 23.07 0 011.1 4.66l.76 4.68c.93 5.71.16 13.1 4.69 17.42-.73-.7.67-1.13 1.28-.77.82.5 1.28 2.12 1.57 3a72.26 72.26 0 004.12 10 14.32 14.32 0 001.69 3.28 14.43 14.43 0 004.88 3c-.67-.28-1.15-3.54-1.37-4.22a47 47 0 01-1.57-4.45 74.08 74.08 0 01-1.61-10.16c-.43-4.81-3.06-9-3-14.17a51 51 0 01.47-5.78c.44-3.77 1.08-7.56 1.34-11.35.18-2.8-.4-6 .91-8.63a18.29 18.29 0 012.69-4.18 26.37 26.37 0 0112.78-9.35c1.07-.35 2.16-.61 3.24-1 3.29-1.07 8.62-3.46 10.56-6.46z"/>
    <path fill="#141b3a" d="M252.4 33.7a19 19 0 00-10 15.65 23.19 23.19 0 015.36-7.07 16.44 16.44 0 00-1.19 12.83 3.41 3.41 0 01.85-.8 18.33 18.33 0 015.75-12.43c3.36-3.09 8.11-5.21 9.49-9.55z"/>
    <path fill="#141b3a" d="M280.84 45a60.27 60.27 0 01-3-5.51c-1.1-2.24-1.56-5.3-3.86-6.51-2.74-1.44-6-1.33-8.88-2.52a13.82 13.82 0 01-7.43-8.5c-.53-1.85-.43-3.31-1.44-5.07a30.54 30.54 0 00-3.93-5.38 5.27 5.27 0 01-1.14-1.6 1.64 1.64 0 01.35-1.82 2.48 2.48 0 011.2-.4c7.86-1.32 13.17-8.32 21.67-7.61 4.93.41 9.29 3.28 13.27 6.23a97.92 97.92 0 0110.93 9.53c3.46 3.48 5.77 7.91 8 12.27a62 62 0 012.85 6c1.07 2.74 1.13 5.54 2 8.34s2 5.6 1.72 8.58l-1-1.56c-.21 2.63.19 5.3.18 8a49.65 49.65 0 002 13.89 17.93 17.93 0 01.46 1.89 21.24 21.24 0 01.13 4.85l-.77-1.85a47.09 47.09 0 01-.25 10.07 66.57 66.57 0 01-3 10.66 44.06 44.06 0 01-2.51 6.21c-.74 1.44-2.5 3.37-2.95 4.79l.42-1.3a40.87 40.87 0 01-8.39 6.59c.6-2.9 1.9-5.61 2.68-8.47 1.88-7 .53-14.4 1.22-21.6.3-3.06 1-6.09 1.19-9.16a18.82 18.82 0 00-.87-7.71c-.88-2.41-3-3.33-5-4.73A55.28 55.28 0 01280.84 45z"/>
    <path fill="#141b3a" d="M267.08 27a2.78 2.78 0 00-1.19-1.14 2.52 2.52 0 00-3 1.62c-.3 1.23.95 2.26 1.53 3.22a10.79 10.79 0 011.31 7.81c-.67 3.07-2.66 5.68-3.71 8.65-.94 2.66-1.55 5.39-.73 8a3.85 3.85 0 01.56-.51c.18-1.56.73-3.32.92-4.29a12.7 12.7 0 012.58-5.76 27.32 27.32 0 003.7-5.22c1.82-3.96.35-8.89-1.97-12.38z"/>
    <path fill="#141b3a" d="M268.94 26.92a4.74 4.74 0 00-3.31-.35 1.07 1.07 0 00-.55.28.81.81 0 000 .93 2.9 2.9 0 00.69.71c3.27 2.77 5.05 8.63 5.06 12.78a14.68 14.68 0 00-1.06-15.1"/>
    <path fill="#230000" d="M246.8 40.18a18.06 18.06 0 00-6.15 10 25.66 25.66 0 00.17 11.82c.05.2.07.1.12.3-1.81-2.56-2-5.88-2.07-9a33.39 33.39 0 01.61-7.67 13.76 13.76 0 013.5-6.76"/>
    <path fill="#141b3a" d="M240.61 73.65a12.18 12.18 0 012.71-2.55 10.27 10.27 0 011.66-.91 8.4 8.4 0 011.84-.52 11.49 11.49 0 017.29 1.22l-.1.21a17.94 17.94 0 00-3.51-.78 13.6 13.6 0 00-3.55.1 9.48 9.48 0 00-3.28 1.23 18.12 18.12 0 00-2.89 2.16zM274.14 73.36a6.94 6.94 0 012.86-2.79 9.16 9.16 0 013.93-1 11.49 11.49 0 014 .6 15.19 15.19 0 013.6 1.75l-.11.2a25.22 25.22 0 00-3.67-1.33 13.23 13.23 0 00-3.79-.48 9.34 9.34 0 00-3.68.85 7.53 7.53 0 00-3 2.37zM259.84 96.72a8.06 8.06 0 011.65 1.65 8.7 8.7 0 002.07 1.65c-.84-.48-2.42-.18-3.42-.56s-2.25-1-2.58-2.1c-.44-1.44 1.24-1.26 2.28-.64zM273.37 97.23h.2a.88.88 0 01.55.2c1.26 1.25-2.43 2.31-3 2.43a5.87 5.87 0 01-2.76-.19 14.57 14.57 0 013.3-2 6.58 6.58 0 01.87-.35 3.4 3.4 0 01.84-.09z"/>
    <path fill="#fff" d="M271.72 92.76A2.42 2.42 0 01274 92a2.36 2.36 0 011.36 1.32 7.26 7.26 0 01.43 1.91 1.29 1.29 0 010 .65 1 1 0 01-1.18.46c-.45-.1-.85-.37-1.29-.51a2.42 2.42 0 00-2.62.85 4 4 0 011.02-3.92z"/>
    <path fill="#141b3a" d="M291.32 65.6c-2.11-1.08-4.51-2.23-4.84-2.34a22.55 22.55 0 00-10.6-.8 6 6 0 00-3.25 1.39 4 4 0 01-1-1l-.18 2.15a4.24 4.24 0 01-1.79-1.72 6.89 6.89 0 003.2 5c1.23.74 1.82-.57 3.18-1a14.9 14.9 0 019.38.13c1.09.38 2.15.9 3.27 1.17a9.49 9.49 0 003.56.14 3.82 3.82 0 002.34-1.22 15.59 15.59 0 00-3.27-1.9zM248 68.2c1.26-.09 2.52-.2 3.77-.19a18.4 18.4 0 013.05.28c.84.14 2.54 1 3.33.81 1.81-.44 1.07-3.48 1.29-4.72a5.34 5.34 0 01-1.32 1.67 1.69 1.69 0 00-.24-1.88 2.35 2.35 0 01-1.19.86 1.33 1.33 0 00.06-.74h-.4a14.84 14.84 0 01-3.9-.62 21.35 21.35 0 00-4.66 0c-2.65.17-7.53-.23-9 2.61a3.89 3.89 0 002.27 1.9c1.88.7 4.94.15 6.94.02z"/>
    <path fill="#141b3a" d="M234 49.05c.33 6.08 4.05 11.18 5.5 17a51.37 51.37 0 001-5.37c.33-2.66.25-6 1.93-8.24 2.29-3 5.63-5.46 8.07-8.45a14.91 14.91 0 003.34-6c.49-2.25-.15-4.89-2.08-6.14-2.39-1.55-5.58-.44-8 1s-5.59 3.21-7.16 5.68a17.91 17.91 0 00-2.6 10.52zM259.53 109.5a18.94 18.94 0 013.83-.26c.7.06 1.39.19 2.09.2.86 0 1.72-.15 2.59-.18 2.84-.07 5.52 1.79 8.33 1 .17-.05.39-.08.47.06a.32.32 0 010 .17 1.42 1.42 0 01-.84 1.17c-1.11.54-2.63.26-3.81.24l-4.46-.07-8.71-.13c-1.22 0-2.45.16-3.67.07a8.32 8.32 0 01-3.13-1.24 1.51 1.51 0 01-.49-.33.49.49 0 01-.09-.55c.16-.26.53-.22.83-.16a19.54 19.54 0 007.06.01z"/>
    <path fill="#fff" d="M260.93 108.11l1-.28a3.29 3.29 0 011.07-.18 6.71 6.71 0 011.32.33 14.11 14.11 0 003.12.13 3 3 0 012.66 1.35c-2.09-.55-4.19.56-6.34.11a16.85 16.85 0 00-1.69-.34 9.47 9.47 0 00-2.69.35 16.5 16.5 0 01-4.7.29 8.71 8.71 0 003.13-.86c1.02-.33 2.07-.61 3.12-.9z"/>
    <path fill="#141b3a" d="M269.85 115c-.7 1.22-2.23 1.65-3.62 1.85a9.29 9.29 0 01-5.62-.64c-.64-.34-1.27-.76-1.88-1.11 1.85.12 3.68.41 5.55.4.72-.05 5.19.11 5.57-.5z"/>
    <path fill="#fff" d="M243.17 74.59c1.11.33 2.22.64 3.35.91a9 9 0 001.71.31 8.86 8.86 0 002.29-.27l4.6-.92c.24-.05.51-.12.61-.34.42-.93-3.19-1.93-3.73-2.08a9.62 9.62 0 00-4.85-.22 9.91 9.91 0 00-2.62 1.1c-.52.29-1.78.78-2.08 1.31zM278.08 76c3.37 1.06 7 0 10.32-1.21a25.4 25.4 0 00-4.34-2.15c-3.2-1.1-5.95.11-8.94 1.37-1.19.5-.62.83.15 1.08.94.28 1.87.6 2.81.91z"/>
    <path fill="#141b3a" d="M243.17 74.62c1.11.34 2.22.67 3.35.95a9.06 9.06 0 001.71.33 8.87 8.87 0 002.29-.28l4.6-1a.78.78 0 00.61-.36c.42-1-3.19-2-3.73-2.18a9.1 9.1 0 00-4.85-.24 9.72 9.72 0 00-2.62 1.16c-.52.31-1.78.83-2.08 1.38zM278.08 76.08c3.37 1.11 7 0 10.32-1.27a23.89 23.89 0 00-4.34-2.26c-3.2-1.17-5.95.11-8.94 1.44-1.19.52-.62.87.15 1.13.94.32 1.87.65 2.81.96z"/>
    <path fill="#fff" d="M247.75 75.66a4.14 4.14 0 01-1-2.15s-1.68.56-1.84.61c-.33.11-1.09.35-.89.85a.48.48 0 00.37.22l2.12.51c.33.08.66.19 1 .24s.61 0 .84 0a2.18 2.18 0 01-.6-.28zM253.62 74.89c.64-.79-.94-1.48-1.54-1.52a8.41 8.41 0 01-.24 1.22 10.52 10.52 0 01-.58 1 7.8 7.8 0 001.46-.23 1.71 1.71 0 00.9-.47zM278.73 75.08a3.24 3.24 0 00.37 1c.08.12.45.61.59.61-.89 0-3.56 0-3.45-1.45.07-.92 1.53-1.12 2.2-1.18.02-.06.13.45.29 1.02zM284.93 74c.07 0 .86.56.92.6s1.1 1 1.22.92a9.09 9.09 0 01-3.44 1.07c.49-.83 1.27-1.54 1.29-2.59zM282.85 90.76a7.18 7.18 0 001.56.53c1.26.25 2.31.16 2.79 1.67a4.52 4.52 0 01.05 1.87c-.2 1.77-.59 8-3.21 8.23a1.84 1.84 0 01-1.4-.58 5.23 5.23 0 01-.88-1.3c-.91-1.66-1.94-3.31-2.74-5a30.77 30.77 0 01-.95-3.24 29.25 29.25 0 00-1.22-2.82c-.18-.39-1.78-3.65-1.19-3.48l5.16 3a21.93 21.93 0 002.03 1.12z"/>
    <path fill="#141b3a" d="M233 65.5c.17 5.85-1 11.71-1.2 13.94s1.89 10.85 2.23 14.13 1.21 14.81 2.59 16.36a36.45 36.45 0 013.27 5c-.58-.2-1.76 0-2.07-.47a17 17 0 01-9 5.11 14.5 14.5 0 005.59-8 7.3 7.3 0 00-4.46-.62 3.17 3.17 0 002.16-4.14 9.36 9.36 0 00-1.64-2.19c-2.54-3.06-2.73-7.35-3.1-11.31-.55-6-1.77-12-1.48-18S228.2 63 233 59.23c-1 2.26-.07 3.77 0 6.27zM282.54 46.73c3.61 6.2 6 8.41 9.12 10.75s7.24 4.92 7.92 8.88a86.77 86.77 0 01.69 15.79c-.17 5.91-.86 14.73-1.2 17.81s-2.68 13.73-4.23 16a46.16 46.16 0 006.44-5.37c7.06-7.48 5.88-33.45 5.71-38.5s.52-11.12-3.27-19.36-12.06-14.61-15.5-14.79a18.51 18.51 0 00-6.37.87z"/>
    <path fill="#141b3a" d="M221.53 81.83q-2.81 3.63-5.91 7a18.3 18.3 0 005.89-2.73l-2.72 3.46 5.51-2.16a8.28 8.28 0 003.45-2.05 8.27 8.27 0 001.42-3.08c.58-2 1.12-4.15.23-6-1.27-2.61-5.2-3.27-7.05-1s-2.1 5.57-4 8c.65-.27 2.71-.84 3.18-1.44zM284.91 78.2a1.71 1.71 0 01-1.05.19 14.62 14.62 0 01-6-1.52c-.25-.12-.08 0-.36 0a5.27 5.27 0 003.65 1.7 7.42 7.42 0 003.57-.17l-.88-.06"/>
    <g fill="#8676f5" style="mix-blend-mode:multiply">
      <circle cx="282.22" cy="75.64" r="10.15"/>
      <circle cx="248.83" cy="75.64" r="10.15"/>
    </g>
    <path fill="#fff" d="M282.22 85.48a10.62 10.62 0 1110.61-10.61 10.62 10.62 0 01-10.61 10.61zm0-20.3a9.69 9.69 0 109.68 9.69 9.7 9.7 0 00-9.68-9.69zM248.6 85.48a10.62 10.62 0 1110.62-10.61 10.62 10.62 0 01-10.62 10.61zm0-20.3a9.69 9.69 0 109.69 9.69 9.7 9.7 0 00-9.69-9.69z"/>
    <path fill="#141b3a" d="M301 70.7l-.76-1.7-7.78 3.45a10.73 10.73 0 00-20.83 1.43 5.39 5.39 0 00-1.82-3.08 7.85 7.85 0 00-8.39-.22 6.3 6.3 0 00-2.23 3.33 10.73 10.73 0 00-20.89-1.28c-1.56-.56-5.84-2.08-7.05-2.69l-.84 1.65c1.41.71 6.2 2.4 7.53 2.87a11.31 11.31 0 00-.07 1.17 10.73 10.73 0 0021.45.43h.74a5.7 5.7 0 012-4.49 6.66 6.66 0 017 .17c1.1.88 1.65 2.41 1.65 4.55h.78a10.73 10.73 0 0021.51-.65 11.72 11.72 0 00-.09-1.33zm-52.4 14.51a9.57 9.57 0 119.58-9.57 9.58 9.58 0 01-9.58 9.57zm33.62 0a9.57 9.57 0 119.57-9.57 9.59 9.59 0 01-9.57 9.57z"/>
    <path fill="#3c46fb" d="M59.17 17.64h105.89V78H59.17z"/>
    <path fill="#fff" d="M73.89 50.38h54.42v3.37H73.89zM127.51 39.69l-8.93-8.94-8.94 8.94-8.94-8.94-8.93 8.94-8.94-8.94-7.42 7.42-3.03-3.03 10.45-10.46 8.94 8.94 8.93-8.94 8.94 8.94 8.94-8.94 8.93 8.94 7.42-7.42 3.04 3.03-10.46 10.46zM73.89 62.17h24.66v3.37H73.89zM104.51 62.17h14.5v3.37h-14.5z"/>
  </g>
</svg>