<svg xmlns="http://www.w3.org/2000/svg" viewBox="0 0 215.37 130.61">
  <defs>
    <linearGradient id="b" x2="215.37" y1="65.31" y2="65.31" gradientUnits="userSpaceOnUse">
      <stop offset="0" stop-color="#ff8177"/>
      <stop offset="0" stop-color="#ffc588"/>
      <stop offset="1" stop-color="#fc7f7a"/>
    </linearGradient>
    <clipPath id="a" transform="translate(2.81 22.65)">
      <path fill="none" d="M43.45 27.83l-6.26-6.26L58.77 0l18.44 18.44L95.65 0l18.44 18.44L132.53 0 151 18.44l15.29-15.31 6.26 6.26L151 31l-18.47-18.48L114.09 31 95.65 12.52 77.21 31 58.77 12.52zM151 79l-18.47-18.4L114.09 79 95.65 60.6 77.21 79 58.77 60.6 37.19 82.17l6.26 6.26 15.32-15.32 18.44 18.45 18.44-18.45 18.44 18.45 18.44-18.45L151 91.56 172.55 70l-6.26-6.26zM58.46 43.47L76.9 61.92l18.44-18.45 18.44 18.45 21.57-21.57-6.25-6.26-15.32 15.31L95.34 31 76.9 49.4 58.46 31 40 49.4 21.57 31 0 52.53l6.26 6.26 15.31-15.32L40 61.92z"/>
    </clipPath>
  </defs>
  <g clip-path="url(#a)">
    <path fill="url(#b)" d="M0 0h215.37v130.61H0z"/>
  </g>
</svg>