<svg xmlns="http://www.w3.org/2000/svg" viewBox="0 0 784.17 480.89">
  <defs>
    <linearGradient id="a" x2="784.17" y1="240.45" y2="240.45" gradientUnits="userSpaceOnUse">
      <stop offset="0" stop-color="#7f37d7"/>
      <stop offset=".47" stop-color="#591eb8"/>
      <stop offset=".99" stop-color="#320598"/>
    </linearGradient>
  </defs>
  <path fill="url(#a)" d="M389.71 222.43c3.06 6.24 6 12.57 9.21 18.72q19.56 37.1 39.36 74.08c3 5.58 1.43 9.37-3.61 12.18-4.84 2.71-9.85 5.1-14.76 7.66-7.65 4-15.59 3.69-23.16.46-2.15-.92-3.95-4.62-4.39-7.29-4.51-27.37-8.71-54.79-13-82.19-.06-.39-.39-.74-2-1.2-.1 4.36-.76 8.79-.19 13.06 2.2 16.49 4.73 32.95 7.26 49.4 1.08 7 2.76 14 3.54 21 .23 2.05-1.23 5.73-2.78 6.29-7.16 2.58-14.64 4.26-22 6.39-7.59 2.21-12.12 7.76-15.72 14.43-4.49 8.34-8.45 17.14-14.13 24.62-3.49 4.6-9.43 7.81-14.88 10.32-5.78 2.67-12.59 3.1-18.38 5.74s-11 6.9-16.46 10.4c-.54.36-.86 1.12-1.42 1.39-8 3.78-11.69 11.54-17.33 17.5-6.25 6.61-15.51 10.5-23.77 15-3.57 1.94-5.17-1.17-6.74-4.29-5.46-10.88-11.27-21.58-17.05-32.29a9.33 9.33 0 00-5-4.34c1.69 4.24 3.3 8.52 5.1 12.71 4.55 10.61 9.12 21.21 13.84 31.74 2 4.48.83 6.59-3.8 8.48a140.78 140.78 0 01-52.69 10.24c-16.35.13-32.34-2.63-46.15-12.57a46.68 46.68 0 01-4.33-3.12c-9.27-8.48-18.49-9.85-29.9-2.85a437.14 437.14 0 01-45.3 24c-11.42 5.27-23.57 9.14-35.71 12.53-4 1.11-8.91-1.25-13.4-2v-2.73c1.93-.9 3.76-1.9 5.68-2.7a517 517 0 0084.84-42.92c6.65-4.14 9.48-9 9.58-17.24a87 87 0 0112.5-44.34 17.72 17.72 0 002.09-10.42c-.52-4.6.88-7.21 4.25-10.23 3.81-3.42 7.6-7.66 9.45-12.32 7.3-18.35 13.18-37.29 20.91-55.44 4.2-9.86 10.92-18.67 16.79-27.77 3.1-4.81 7.24-6 12.43-2.41 2.27 1.57 5.2 2.18 9.16 2.13-2.5-3.92-4.87-7.94-7.52-11.75-3.92-5.63-3.78-7.1 2.61-9.79 5.49-2.3 9.62-5.35 12.81-10.77 4.69-8 15.71-9.13 22.51-2.52 11.12 10.8 21.63 22.23 32.4 33.4 2.7 2.8 5.37 5.61 8.06 8.42l1.79-1.33c-3-4.65-5.62-9.59-9.05-13.89-10.37-13-21-25.73-31.62-38.53-5.39-6.5-5.52-9.53 1.61-14 10.87-6.82 22.34-12.66 33.39-19.19 2.1-1.25 4.7-3.68 4.88-5.76.7-7.86 5-12.88 11.64-15.78 10.74-4.69 21.56-9.36 32.71-12.91s20.18-8.87 25.95-19.31c5.9-10.68 15.11-15.91 27.19-13.47 14.82 3 29.28.37 43.65-2 15.75-2.55 28.32 2.56 39.54 12.86a13.42 13.42 0 011.87 1.9c10.7 14.44 24.56 15.39 40.37 10.11 34.73-11.59 69.78-22.26 104.31-34.42 45.74-16.11 88.68-38.64 131.44-61.19 19.23-10.15 37.67-21.73 58.08-29.55 2.58-1 5.21-1.86 7.9-2.82-4.24 31.94-9.53 62.62-34.81 85.16-3 2.7-4.81 6.88-6.84 10.56s-4 4.3-8 2.45c-7.1-3.24-14.63-5.52-22-8.2l-1.11 2.17c3.66 3.38 7.06 7.11 11 10.06 5 3.73 5.34 6.49.28 10.68-12.42 10.4-24.55 21.17-36.69 31.87-1.79 1.58-4.06 3.4-4.59 5.5-1.58 6.22-3.55 4.9-7.55 1.72-8.41-6.68-17.37-12.69-26.1-19l-1.4 1.27c6.22 7 12.23 14.22 18.71 21 5.82 6.06 5.91 6.64-.9 11.28-4 2.75-8.31 5.42-11.56 9-12.3 13.38-27.46 22.05-43.93 29.24-17.24 7.52-35 10.49-53.66 10.41a42.75 42.75 0 00-14.76 3.14c-1.76.66-2.85 4-3.59 6.36-3 9.46-5 19.32-8.77 28.42-5.86 14-17.67 18.22-32.16 17.17-16.76-1.21-16.68-.94-23.58 14.58-4.05 9.11-8.12 18.29-13.18 26.84-4.61 7.78-6.85 7.18-11.42-.57q-24-40.74-48.35-81.28c-1.89-3.15-4.49-5.86-6.76-8.78z"/>
</svg>