<svg xmlns="http://www.w3.org/2000/svg" viewBox="0 0 111.24 92.26">
  <defs>
    <linearGradient id="a" x1="-1631.71" x2="-1615.67" y1="-3120.27" y2="-3120.27" gradientTransform="rotate(180 -760.365 -1556.125)" gradientUnits="userSpaceOnUse">
      <stop offset="0" stop-color="#f8f8fd"/>
      <stop offset=".63" stop-color="#e9eafe"/>
      <stop offset=".99" stop-color="#e9eafe"/>
      <stop offset="1" stop-color="#e9eafe"/>
    </linearGradient>
  </defs>
  <path fill="#fff" d="M0 16.04h111.24v76.22H0z"/>
  <path fill="#3c46fb" d="M86.89 29.83a12.35 12.35 0 1012.34 12.35 12.34 12.34 0 00-12.34-12.35zm0 19.28a7.4 7.4 0 117.4-7.4 7.39 7.39 0 01-7.41 7.4z" opacity=".34"/>
  <path fill="#3c46fb" d="M93.86 32l-2.58 3.78a7.38 7.38 0 11-4.41-1.46v-4.49a12.35 12.35 0 107 2.16z"/>
  <path fill="#3c46fb" d="M55.62 29.83A12.35 12.35 0 1068 42.18a12.35 12.35 0 00-12.38-12.35zm0 19.28a7.4 7.4 0 117.4-7.4 7.39 7.39 0 01-7.4 7.4zM24.36 29.83a12.35 12.35 0 1012.35 12.35 12.35 12.35 0 00-12.35-12.35zm0 19.28a7.4 7.4 0 117.4-7.4 7.4 7.4 0 01-7.4 7.4z" opacity=".34"/>
  <path fill="#3c46fb" d="M31.73 42.18a7.39 7.39 0 11-7.37-7.87h.08v-4.49h-.13a12.35 12.35 0 1012.4 12.36zM60.63 47.14a7.39 7.39 0 11-5-12.83v-4.48a12.35 12.35 0 108.8 21zM14.07 63.37h20.48v2.53H14.07zM14.07 69.42h20.48v2.53H14.07zM14.07 75.46h20.48v2.53H14.07zM45.38 63.37h20.48v2.53H45.38zM45.38 69.42h20.48v2.53H45.38zM45.38 75.46h20.48v2.53H45.38zM76.64 63.37h20.48v2.53H76.64zM76.64 69.42h20.48v2.53H76.64zM76.64 75.46h20.48v2.53H76.64z"/>
  <path fill="url(#a)" d="M110.98 16.04L94.94 0v16.04h16.04z"/>
</svg>