<svg xmlns="http://www.w3.org/2000/svg" viewBox="0 0 85.38 126.39">
  <defs>
    <linearGradient id="a" x1="1" x2="84.38" y1="61.82" y2="61.82" gradientUnits="userSpaceOnUse">
      <stop offset="0" stop-color="#ff77fc"/>
      <stop offset=".49" stop-color="#ff9ba8"/>
      <stop offset="1" stop-color="#ffc053"/>
    </linearGradient>
  </defs>
  <path fill="#3c46fb" d="M80.06 79.32l-1.93-1.92c3.05-6.57.62-11.44-5.42-15 2-6.33-.42-10.67-6.26-13.7l3.83-3.84c3.4-3.41 6.89-6.74 10.17-10.26a8.94 8.94 0 00.47-12.19 9.12 9.12 0 00-12.55-1.27 28.47 28.47 0 00-3.27 3Q50.64 38.65 36.2 53.07c-.73.72-1.57 1.34-2.88 2.45.1-2.32.24-3.78.21-5.24a23.21 23.21 0 00-.37-4.94c-.91-3.86-5.45-7.71-8.81-7.72-3.67 0-6 2.46-7.15 7.51-1.2 5.33-2.44 10.66-3.63 16-2.39 10.77-6.12 21-12.42 30.14A14 14 0 000 93.92l32.47 32.47c12.05-5.67 25-9.59 34.33-20.13 4.28-4.84 9.2-9.11 13.61-13.85 4.14-4.41 3.89-8.87-.35-13.09z"/>
  <path fill="url(#a)" d="M81.06 68.32l-1.93-1.92c3.05-6.57.62-11.44-5.42-15 2-6.33-.42-10.67-6.26-13.7l3.83-3.84c3.4-3.41 6.89-6.74 10.17-10.26a8.94 8.94 0 00.47-12.19 9.12 9.12 0 00-12.55-1.27 28.47 28.47 0 00-3.27 3.05L37.2 42.07c-.73.72-1.57 1.34-2.88 2.45.1-2.32.24-3.78.21-5.24a23.21 23.21 0 00-.37-4.94c-.91-3.86-5.45-7.72-8.81-7.72-3.67 0-6 2.46-7.15 7.51-1.2 5.33-2.44 10.66-3.63 16-2.39 10.77-6.12 21-12.42 30.14A14 14 0 001 82.92l32.47 32.47c12.05-5.67 25-9.59 34.33-20.13 4.28-4.84 9.2-9.11 13.61-13.85 4.14-4.41 3.89-8.87-.35-13.09z"/>
  <path d="M34.47 107.14L2 74.67A15 15 0 013.14 72c6.31-9.16 10-19.37 12.43-30.14 1.19-5.34 2.43-10.66 3.63-16 1.14-5.05 3.48-7.51 7.15-7.51 3.36 0 7.9 3.86 8.81 7.72a23.21 23.21 0 01.37 4.93c0 1.46-.11 2.93-.21 5.24 1.31-1.11 2.15-1.73 2.88-2.45L67.1 5a28.57 28.57 0 013.27-3.06A9.12 9.12 0 0182.92 3.2a8.94 8.94 0 01-.47 12.19c-3.28 3.52-6.77 6.84-10.17 10.25-1.15 1.17-2.28 2.36-3.83 3.84 5.84 3 8.3 7.37 6.26 13.71 6 3.52 8.47 8.39 5.42 15l1.93 1.92c4.24 4.22 4.49 8.65.35 13.1C78 77.9 73.08 82.18 68.8 87c-9.31 10.55-22.28 14.47-34.33 20.14zm23.7-52.35c1.34-1.45 2.29-2.56 3.32-3.6a75.38 75.38 0 016.73-6.65c3.6-2.85 3.45-7.55 1.56-9.16-2.49-2.11-5.58-1.53-9.11 1.92-1.07 1.05-2.12 2.12-3.17 3.17l-4.76 4.76c-1.05-1.24-1.72-2-2.57-3l3.36-3.36c7.76-7.75 15.54-15.47 23.26-23.25 1.39-1.4 3-2.91 3.58-4.68a7.12 7.12 0 00-.67-5 3.64 3.64 0 00-4.82-1.46 14.85 14.85 0 00-4.38 3Q53.69 24.12 37 40.91l-3.56 3.57c-2.95-1.48-3.27-3.39-3-5.76A58.94 58.94 0 0031 28.8a7.9 7.9 0 00-2.22-4.67c-2.22-2.24-4.26-1.59-5 1.44-.87 3.37-1.48 6.8-2.21 10.21-2.7 12.51-5.87 24.85-13 35.79a13 13 0 00-1 2.54l27.73 27.77c4-1.78 7.93-3.53 11.86-5.24 7.21-3.15 13.84-7.07 19-13.18 2.58-3 5.6-5.67 8.42-8.49 1.53-1.52 3.13-3 4.58-4.58 2-2.27 2.22-5.08.54-6.69s-3.68-1.24-6.08 1c-1.79 1.69-3.49 3.47-5.52 5.5l-2.6-3.06c.92-1 1.54-1.81 2.23-2.51 2.56-2.6 5.28-5.07 7.7-7.8 2.2-2.48 2.13-5.77.18-7.67s-4.32-1.72-7 .73c-2.21 2-4.24 4.21-6.38 6.3a9 9 0 01-1.42.92z"/>
  <path fill="#fff" d="M58.17 54.79l2.6 2.32a9 9 0 001.42-.92c2.14-2.09 4.17-4.3 6.38-6.3 2.72-2.45 5.12-2.61 7-.73s2 5.19-.18 7.67c-2.42 2.73-5.14 5.2-7.7 7.8-.69.7-1.31 1.47-2.23 2.51l2.64 3.08c2-2 3.73-3.81 5.52-5.5 2.4-2.26 4.48-2.57 6.08-1s1.51 4.42-.54 6.69c-1.45 1.6-3 3.06-4.58 4.58-2.82 2.82-5.84 5.47-8.42 8.49-5.2 6.11-11.83 10-19 13.18-3.93 1.71-7.84 3.46-11.86 5.24L7.54 74.11a13 13 0 011-2.54c7.09-10.94 10.26-23.28 13-35.79.73-3.41 1.34-6.84 2.21-10.21.78-3 2.82-3.68 5-1.44A7.9 7.9 0 0131 28.8a58.94 58.94 0 01-.54 9.92c-.27 2.37.05 4.28 3 5.76L37 40.91Q53.73 24.17 70.5 7.47a14.85 14.85 0 014.38-3 3.64 3.64 0 014.82 1.44 7.12 7.12 0 01.67 5c-.6 1.77-2.19 3.28-3.58 4.68-7.72 7.78-15.5 15.5-23.26 23.25l-3.36 3.36c.85 1 1.52 1.77 2.57 3l4.76-4.76c1-1 2.1-2.12 3.17-3.17 3.53-3.45 6.62-4 9.11-1.92 1.89 1.61 2 6.31-1.56 9.16a75.38 75.38 0 00-6.73 6.65c-1.03 1.07-1.98 2.18-3.32 3.63z"/>
</svg>