<svg xmlns="http://www.w3.org/2000/svg" viewBox="0 0 154.88 141.63">
  <defs>
    <linearGradient id="b" x2="154.88" y1="70.81" y2="70.81" gradientUnits="userSpaceOnUse">
      <stop offset="0" stop-color="#ff77fc"/>
      <stop offset=".49" stop-color="#ff9ba8"/>
      <stop offset="1" stop-color="#ffc053"/>
    </linearGradient>
    <clipPath id="a" transform="translate(18.99 14.56)">
      <path fill="none" d="M6.64 3.32A3.32 3.32 0 113.32 0a3.32 3.32 0 013.32 3.32zM19.51 0a3.32 3.32 0 103.32 3.32A3.32 3.32 0 0019.51 0zm16.2 0A3.32 3.32 0 1039 3.32 3.32 3.32 0 0035.71 0zM51.9 0a3.32 3.32 0 103.32 3.32A3.32 3.32 0 0051.9 0zm16.2 0a3.32 3.32 0 103.32 3.32A3.32 3.32 0 0068.1 0zm16.19 0a3.32 3.32 0 103.32 3.32A3.32 3.32 0 0084.29 0zm16.2 0a3.32 3.32 0 103.32 3.32A3.32 3.32 0 00100.49 0zm16.19 0A3.32 3.32 0 10120 3.32 3.32 3.32 0 00116.68 0zM3.32 16.2a3.32 3.32 0 103.32 3.31 3.32 3.32 0 00-3.32-3.31zm16.19 0a3.32 3.32 0 103.32 3.31 3.32 3.32 0 00-3.32-3.31zm16.2 0A3.32 3.32 0 1039 19.51a3.32 3.32 0 00-3.29-3.31zm16.19 0a3.32 3.32 0 103.32 3.31 3.32 3.32 0 00-3.32-3.31zm16.2 0a3.32 3.32 0 103.32 3.31 3.31 3.31 0 00-3.32-3.31zm16.19 0a3.32 3.32 0 103.32 3.31 3.32 3.32 0 00-3.32-3.31zm16.2 0a3.32 3.32 0 103.32 3.31 3.31 3.31 0 00-3.32-3.31zm16.19 0a3.32 3.32 0 103.32 3.31 3.32 3.32 0 00-3.32-3.31zM3.32 32.39a3.32 3.32 0 103.32 3.32 3.32 3.32 0 00-3.32-3.32zm16.19 0a3.32 3.32 0 103.32 3.32 3.32 3.32 0 00-3.32-3.32zm16.2 0A3.32 3.32 0 1039 35.71a3.32 3.32 0 00-3.29-3.32zm16.19 0a3.32 3.32 0 103.32 3.32 3.32 3.32 0 00-3.32-3.32zm16.2 0a3.32 3.32 0 103.32 3.32 3.32 3.32 0 00-3.32-3.32zm16.19 0a3.32 3.32 0 103.32 3.32 3.32 3.32 0 00-3.32-3.32zm16.2 0a3.32 3.32 0 103.32 3.32 3.32 3.32 0 00-3.32-3.32zm16.19 0a3.32 3.32 0 103.32 3.32 3.32 3.32 0 00-3.32-3.32zM3.32 48.59a3.32 3.32 0 103.32 3.32 3.32 3.32 0 00-3.32-3.32zm16.19 0a3.32 3.32 0 103.32 3.32 3.32 3.32 0 00-3.32-3.32zm16.2 0A3.32 3.32 0 1039 51.91a3.32 3.32 0 00-3.29-3.32zm16.19 0a3.32 3.32 0 103.32 3.32 3.32 3.32 0 00-3.32-3.32zm16.2 0a3.32 3.32 0 103.32 3.32 3.31 3.31 0 00-3.32-3.32zm16.19 0a3.32 3.32 0 103.32 3.32 3.32 3.32 0 00-3.32-3.32zm16.2 0a3.32 3.32 0 103.32 3.32 3.31 3.31 0 00-3.32-3.32zm16.19 0a3.32 3.32 0 103.32 3.32 3.32 3.32 0 00-3.32-3.32zM3.32 64.78a3.32 3.32 0 103.32 3.32 3.32 3.32 0 00-3.32-3.32zm16.19 0a3.32 3.32 0 103.32 3.32 3.32 3.32 0 00-3.32-3.32zm16.2 0A3.32 3.32 0 1039 68.1a3.32 3.32 0 00-3.29-3.32zm16.19 0a3.32 3.32 0 103.32 3.32 3.32 3.32 0 00-3.32-3.32zm16.2 0a3.32 3.32 0 103.32 3.32 3.32 3.32 0 00-3.32-3.32zm16.19 0a3.32 3.32 0 103.32 3.32 3.32 3.32 0 00-3.32-3.32zm16.2 0a3.32 3.32 0 103.32 3.32 3.32 3.32 0 00-3.32-3.32zm16.19 0A3.32 3.32 0 10120 68.1a3.32 3.32 0 00-3.32-3.32zM3.32 81a3.32 3.32 0 103.32 3.3A3.32 3.32 0 003.32 81zm16.19 0a3.32 3.32 0 103.32 3.32A3.32 3.32 0 0019.51 81zm16.2 0A3.32 3.32 0 1039 84.3a3.32 3.32 0 00-3.29-3.3zm16.19 0a3.32 3.32 0 103.32 3.32A3.32 3.32 0 0051.9 81zm16.2 0a3.32 3.32 0 103.32 3.32A3.31 3.31 0 0068.1 81zm16.19 0a3.32 3.32 0 103.32 3.32A3.32 3.32 0 0084.29 81zm16.2 0a3.32 3.32 0 103.32 3.32 3.31 3.31 0 00-3.32-3.32zm16.19 0a3.32 3.32 0 103.32 3.3 3.32 3.32 0 00-3.32-3.3zM3.32 97.17a3.32 3.32 0 103.32 3.32 3.32 3.32 0 00-3.32-3.32zm16.19 0a3.32 3.32 0 103.32 3.32 3.32 3.32 0 00-3.32-3.32zm16.2 0a3.32 3.32 0 103.29 3.32 3.32 3.32 0 00-3.29-3.32zm16.19 0a3.32 3.32 0 103.32 3.32 3.32 3.32 0 00-3.32-3.32zm16.2 0a3.32 3.32 0 103.32 3.32 3.32 3.32 0 00-3.32-3.32zm16.19 0a3.32 3.32 0 103.32 3.32 3.32 3.32 0 00-3.32-3.32zm16.2 0a3.32 3.32 0 103.32 3.32 3.32 3.32 0 00-3.32-3.32zm16.19 0a3.32 3.32 0 103.32 3.32 3.32 3.32 0 00-3.32-3.32zM3.32 113.37a3.32 3.32 0 103.32 3.32 3.32 3.32 0 00-3.32-3.32zm16.19 0a3.32 3.32 0 103.32 3.32 3.32 3.32 0 00-3.32-3.32zm16.2 0a3.32 3.32 0 103.29 3.32 3.32 3.32 0 00-3.29-3.32zm16.19 0a3.32 3.32 0 103.32 3.32 3.32 3.32 0 00-3.32-3.32zm16.2 0a3.32 3.32 0 103.32 3.32 3.31 3.31 0 00-3.32-3.32zm16.19 0a3.32 3.32 0 103.32 3.32 3.32 3.32 0 00-3.32-3.32zm16.2 0a3.32 3.32 0 103.32 3.32 3.31 3.31 0 00-3.32-3.32zm16.19 0a3.32 3.32 0 103.32 3.32 3.32 3.32 0 00-3.32-3.32z"/>
    </clipPath>
  </defs>
  <g clip-path="url(#a)">
    <path fill="url(#b)" d="M0 0h154.88v141.63H0z"/>
  </g>
</svg>