<svg xmlns="http://www.w3.org/2000/svg" viewBox="0 0 331.24 672.16">
  <path fill="#d0d4f4" d="M103.24 58.51l1.82-6.09-44.62 3.05 5.01 5.51 37.79-2.47zM118.2 48.44l3.86-14.26-13.37 6.95.98 3.67 8.53 3.64zM173.42 630.09l-21.33 34.94 17 7.13 16.46-33.17-5.86-10.3-6.27 1.4z"/>
  <path fill="#d0d4f4" d="M214.56 386l-9.29-15.42L148 332.32l-38 5.86-12-18.46H87.45L87 300.27h13.38l8.15-3.45-11.29-12-18.52.74-9.75 4.08L46 267.16l39.87-14L83.82 270l34.2-3.27 14.82-56.14 7.68 3.92 38.61-41.82-6.55-8.69 28.18-15.1 2.25 3.29 11.57-3.91-3.77-17.46-8.55-12.82-4 6-12.66-21.78 4.81 1.27 3.05-4.25-1.46-12.6 5.87-2.79L191 57.9l-21.5-20.12-6.22 8.69-14-12.9-13.54 12.64 12.81 25.85 8.79 22.69 8.52 2.25L176 99.67l-.42 7.44-26.91 43.79-5.47-2.31 2-8.34-19.86-12L133.29 82l-10.58-37.35-12.56 29.73L95 93.68l2-3.81-41.5 2.39-25.65 28.88L13 168.17l3.79 62.48 16 64.88 8.62-1.18c1.7 5.67 10 32 9.93 32.17l36.51 32.88 31.94-6.11-7.3-11.29 11.77 8-4.47 3.33-4.73 114.55 38 189.73 27.15-40.39 3.39-56.36 2.57.18 23.38-43.66 28-24.6 11.5-80.78-23.88-17zM69.82 290.47l-.13-.13 9.13-.92.11.16z"/>
  <path fill="#d0d4f4" d="M104.46 302.24l.93 5.25 13.38-.7 3.01-3.05-6.22-4.82-11.1 3.32zM229.85 14.28l-2.49-11.76-69.85 16.45 6.66 7.7-23.06 2.22 1.54 5.57 22.4-6.77 13.18 15.26 25.62-7.29 4.67 25.1 5.57.05 8.96 9.73-3.34 10.08 10.35 35.03 6.76 3.91 67.05-29.53 1.56-20.26 25.8-20.06.01-42.18-101.39 6.75zM153.98 103.8l12.43-1.2-1.96-4-10.47 5.2z"/>
  <path fill="#f5f6fd" d="M53.01 321.52l4.57-27.2-24.81 1.21-6.41-30.98 46.2-17.21 11.26 22.64 24.91-70.54 4.14 3.32 54.76-46.64-8.12-14.28 30.99-24.78-13.82-30.2-7.91 8.26-8-.93-4.38-11.11-8.37-1.84-29 49.48-5.9-2.61 2.17-9.43-25.71-16.62 34.22-28.01-1.09-29.4-7.76 14.32-53.83 7.09 2.18-4.3-58.33 75.31L0 254.61l73.85 107.21 14-2.42-23.46-37.93-11.38.05zM180.83 409.49l3.49-6.68-13.53-21.47-63.4-42.76-19.54 20.82-5.1 129.43 61.84 170.04 8.46-1.3 3.66-63.68 13.01-6.56 25.56-65.68 18.9-11.46 3.52-77.57-19.25-22.9-17.62-.23zM304.01 45.5l-9.25-8.27 36.48-29.7-.18-2.3-130.82 11.02 3.94 7.01 6.01.05 20.02 25.63-10.5 31.68 8.6 9.41 70.01-38.52-8.44-3.21 1.8-5 12.33 2.2z"/>
  <path fill="#f5f6fd" d="M148.14 69.08l.41 2.98 26.5 7.33 3.29-4.81-1.41-12.63 14.11-4.05-21.5-20.12-23.84 2.92 3.58-7.13-13.54 12.64 38.41 14.71-26.01 8.16zM66.37 290.68l12.45-1.26 7.98 10.85 13.55.02.35-1.78-22.01-12.98-12.32 5.15zM202.26 118.02l-11.22 16.67 19.77-3.9-8.55-12.77zM147.08 22.85l-5.97 6.04 29.29-2.82-23.32-3.22zM152.09 665.03l3.33 6.32 13.67.81-12.59-9.68-4.41 2.55zM105.39 307.49l13.38-.7-14.31-4.55.93 5.25zM122.06 34.18l-13.37 6.95 8.13 2.78 5.24-9.73zM225.24 0L170.4 5.23l-14.45 15.4 71.41-18.11L225.24 0zM96.74 39.15l-21.75 2.61-14.55 13.71 44.62-3.05-8.32-13.27z"/>
</svg>