<svg xmlns="http://www.w3.org/2000/svg" viewBox="0 0 183.91 95">
  <path fill="#fff" d="M6.06 73.86h50.76V77H6.06zM6.06 84.85h50.76v3.14H6.06z"/>
  <path fill="none" stroke="#fff" stroke-miterlimit="10" stroke-width="4" d="M64.42 51.76l-8.34 8.33-8.34-8.33-8.33 8.33-8.34-8.33-8.33 8.33-8.34-8.33-8.34 8.33"/>
  <path fill="#fff" d="M0 43.86h71.91v51.13H0z" opacity=".2"/>
  <path fill="#fff" d="M0 43.86L102.48 1h80.43v57.43L71.91 95H0V43.86z" opacity=".2"/>
  <path fill="#fff" stroke="#3c46fb" stroke-miterlimit="10" stroke-width="2" d="M102.48 1h80.43v57.43h-80.43z"/>
  <path fill="#3c46fb" d="M112.67 34.22h50.76v3.14h-50.76zM162.69 24.24l-8.34-8.34-8.33 8.34-8.34-8.34-8.34 8.34-8.33-8.34-6.92 6.93-2.83-2.83 9.75-9.75 8.33 8.33 8.34-8.33 8.34 8.33 8.33-8.33 8.34 8.33 6.92-6.92 2.83 2.83-9.75 9.75zM112.67 45.21h23.01v3.14h-23.01zM141.23 45.21h13.52v3.14h-13.52z"/>
</svg>