<svg xmlns="http://www.w3.org/2000/svg" viewBox="0 0 62.76 10.78">
  <path fill="#fff" d="M0 6.29V4.63l5.16-2.76v1.66L1.6 5.41v.1l3.56 1.88v1.66zM7.06 10.78L10.91 0h1.59L8.65 10.78zM14.16 9.12V2.93h1.78v1.13H16a3 3 0 01.26-.5 2.05 2.05 0 01.38-.4 1.71 1.71 0 01.52-.27 1.9 1.9 0 01.66-.11 2.18 2.18 0 01.82.15 1.59 1.59 0 01.63.45 2.14 2.14 0 01.42.74 3 3 0 01.15 1v4h-1.77V5.35c0-.8-.35-1.2-1-1.2a1.34 1.34 0 00-.4.06 1.07 1.07 0 00-.36.16.85.85 0 00-.24.29.8.8 0 00-.09.39v4.07zM24.18 9.26a3.58 3.58 0 01-1.3-.26 2.61 2.61 0 01-1-.64 2.77 2.77 0 01-.62-1A3.84 3.84 0 0121.07 6a3.82 3.82 0 01.22-1.35 2.77 2.77 0 01.62-1 2.49 2.49 0 011-.64 3.79 3.79 0 012.6 0 2.49 2.49 0 011 .64 2.77 2.77 0 01.62 1A3.82 3.82 0 0127.29 6a3.84 3.84 0 01-.22 1.36 2.77 2.77 0 01-.62 1 2.61 2.61 0 01-1 .64 3.58 3.58 0 01-1.27.26zm0-1.32a1.21 1.21 0 00.94-.37 1.54 1.54 0 00.33-1.05v-1a1.52 1.52 0 00-.33-1 1.35 1.35 0 00-1.88 0 1.52 1.52 0 00-.33 1v1a1.54 1.54 0 00.33 1.05 1.21 1.21 0 00.94.37zM31.63 9.26A3.6 3.6 0 0130.32 9a2.69 2.69 0 01-1-.64 2.89 2.89 0 01-.61-1A3.84 3.84 0 0128.5 6a3.82 3.82 0 01.22-1.35 2.89 2.89 0 01.61-1 2.57 2.57 0 011-.64 3.58 3.58 0 011.3-.23 2.87 2.87 0 011.64.42 2.66 2.66 0 01.94 1.1l-1.38.7a1.8 1.8 0 00-.44-.6 1.11 1.11 0 00-.77-.24 1.24 1.24 0 00-.94.35 1.37 1.37 0 00-.33 1v1a1.33 1.33 0 00.33 1 1.24 1.24 0 001 .36 1.22 1.22 0 00.81-.24A1.86 1.86 0 0033 7l1.35.77a2.74 2.74 0 01-1 1.1 3 3 0 01-1.72.39zM38.58 9.26a3.58 3.58 0 01-1.3-.26 2.61 2.61 0 01-1-.64 2.77 2.77 0 01-.62-1A3.84 3.84 0 0135.47 6a3.82 3.82 0 01.22-1.35 2.77 2.77 0 01.62-1 2.49 2.49 0 011-.64 3.79 3.79 0 012.6 0 2.57 2.57 0 011 .64 2.77 2.77 0 01.62 1A3.82 3.82 0 0141.69 6a3.84 3.84 0 01-.22 1.36 2.77 2.77 0 01-.62 1 2.69 2.69 0 01-1 .64 3.58 3.58 0 01-1.27.26zm0-1.32a1.21 1.21 0 00.94-.37 1.54 1.54 0 00.33-1.05v-1a1.52 1.52 0 00-.33-1 1.35 1.35 0 00-1.88 0 1.52 1.52 0 00-.33 1v1a1.54 1.54 0 00.33 1.05 1.21 1.21 0 00.94.37zM46.9 8h-.09a2.45 2.45 0 01-.66.93 1.78 1.78 0 01-1.15.33 2.27 2.27 0 01-1-.19 2 2 0 01-.73-.59 3.1 3.1 0 01-.48-1A5.68 5.68 0 0142.65 6a5.6 5.6 0 01.17-1.45 3.16 3.16 0 01.48-1A1.92 1.92 0 0144 3a2.3 2.3 0 011.61-.1 1.78 1.78 0 01.51.27 2.07 2.07 0 01.38.4 2.87 2.87 0 01.28.52h.09V.24h1.77v8.88H46.9zm-1.16-.11a1.4 1.4 0 00.81-.22.81.81 0 00.35-.72V5.12a.8.8 0 00-.35-.72 1.4 1.4 0 00-.81-.22 1.18 1.18 0 00-.92.36 1.44 1.44 0 00-.32 1v1a1.44 1.44 0 00.32 1 1.18 1.18 0 00.92.33zM53.15 9.26a3.08 3.08 0 01-2.37-.86A3.35 3.35 0 0150 6.05a4.09 4.09 0 01.21-1.36 3 3 0 01.6-1 2.5 2.5 0 011-.64A3.31 3.31 0 0153 2.78a3.28 3.28 0 011.24.22 2.44 2.44 0 01.94.63 2.87 2.87 0 01.59 1 3.77 3.77 0 01.23 1.3v.53h-4.26v.1a1.3 1.3 0 00.38 1 1.5 1.5 0 001.09.37 2 2 0 00.95-.21 2.29 2.29 0 00.68-.56l1 1a3 3 0 01-1 .77 3.6 3.6 0 01-1.69.33zM53 4.06a1.18 1.18 0 00-.91.35 1.31 1.31 0 00-.35 1v.1h2.5v-.1a1.37 1.37 0 00-.33-1 1.19 1.19 0 00-.91-.35zM57.6 7.39l3.56-1.88v-.1L57.6 3.53V1.87l5.16 2.76v1.66L57.6 9.05z"/>
</svg>