<svg xmlns="http://www.w3.org/2000/svg" viewBox="0 0 175.8 169.55">
  <defs>
    <linearGradient id="a" x1="-4829.45" x2="-4659.9" y1="-3660.56" y2="-3660.56" gradientTransform="rotate(45 -6850.965 4041.767)" gradientUnits="userSpaceOnUse">
      <stop offset="0" stop-color="#f8f8fd"/>
      <stop offset=".63" stop-color="#e9eafe"/>
      <stop offset=".99" stop-color="#e9eafe"/>
      <stop offset="1" stop-color="#e9eafe"/>
    </linearGradient>
    <clipPath id="b">
      <ellipse cx="84.77" cy="84.78" fill="none" rx="84.77" ry="84.78"/>
    </clipPath>
  </defs>
  <ellipse cx="84.77" cy="84.78" fill="url(#a)" rx="84.77" ry="84.78"/>
  <g fill="#3c46fb" clip-path="url(#b)">
    <path d="M95.02 69.96l4.67 4.05.58-1.72 8.15-.43.47-3.48-5.05-2.09-.45-1.63 7.88-1.88-2.34-2.83.47-2.6-2.17 1.4.87.7-1.32.37-.84-1.76-1.89 4.17.39 1.34-2.81.69-.1 1.86-5.31-6.86-.39.21.02.92 3.23 3.96-1.29 1.9-2.94-5.02-8.56 6.83-1.54-.95-.05-5.31 2.8-.43 1.34-2.54-1.68-2.05 7.59-8.49-.16 1.64 1.2-.61-.07.86-.97.81 4.18.09 4.59-5.14-3.41-.71.65-4.15-.59-.04-2.31 3.56.82 1.57-1.63 3.24-1.27-.61-.77-2.12-.85.71-1.51-1.44 7.41-8.79 8.02 2.81-3.64-.1 2.16 1.75 2.85-1.26-.32-1.24 6.62-.46 2.34-2.15 1.66-.6 1.49 3.09-.27 1.7 1.07-.75-1.21-3.39 4.29-2.06-.39-1.09 4.76-1.35 4.95 1.2.19.36-1.4 1.29.05.3 15.14-.68 13.54 3.62 3.86 4.66 1.5 4.26-.44 6.72-4.04-9.04-7.01 3.88-.44 2.07 5.01 5.27-.48 5.28-1.46.18-1.13 3.8 1.93 2.2-.8 2.58-2.43-4.83-1.52.41-.25-1.14-.75-.33-.81 2.09-.42-.34 3 1.41-1.02 1.85 1.71 3.54-.05 1.31.79 1.18-5.25 8.03-1.01-.94-1.4 1.93 2.54 6.97-2.24 3.54-4.56-6.75-1.56-.22-3.2-6.07-6.19 13.15-1-.48-2.93-12.55-13.61-7.72.65 4.15 3.69-.15 1.94 4.15-7.2 8.22-6.95-15.7-1.16-.23 7.71 18.63 3.08-1.22-6.75 16.53.85 7.27-9.48 20.36-2.19.13-7.66-37.68-8.74-.07-4.94-10.12 7.12-19.57L94 67.36l.88.94.14 1.66zM35.44 99.25l2.62 4.16-.68 1.29 3.42.05 3.73 4.44-.68 15.03-3.66 2.22-4.96 12.72-2.52 1.28-.71 12.33-1.64.26-11.98-32.95.99-25.08-2.71.47L2.35 74.69l.96-22.77 11.3-14.59-.42.83 10.43-1.37 1.5-2.78.21 5.7-6.63 5.42 4.98 3.22-.42 1.83 1.15.51 5.62-9.59 1.62.36.85 2.15 1.55.18 1.53-1.6 2.68 5.85-6.01 4.8 1.58 2.77-10.61 9.04-.81-.65-4.82 13.67-2.18-4.39-8.96 3.34 1.25 6 4.8-.23-.88 5.27 2.2-.01L19.37 95l3.79-4.04 12.28 8.29zM164.93 133.86l2.93-10.35-1.93-9.63-1 5.84-.72.22-.72-.97-.17-3.62-5.66 4.66-.52-.4-4.38 6.51-.62 9.78 6.72.31 1.23 2.05 4.84-4.4zM58.51 34.72l.35-.97 2.39.43-1.79-1.61 7.07-5.75-.04-.45-25.34 2.14.76 1.36 1.16.01 3.88 4.96-2.03 6.14 1.66 1.82 13.57-7.46-1.64-.62zM166.81 106.47l-1.02-1.12-.28 1.02 3.49 3.69-.61.73 7.41 3.18-6.97-9.12-2.02 1.62zM152.13 101.42l.15 3.56 1.09 1.26 2.69-.59 1.38-7.4-1.78-.38-3.53 3.55z"/>
    <path d="M35.2 32.68l-4.62.57.69-1.39-2.62 2.45 7.44 2.85-5.04 1.59.08.57 5.13 1.42.64-.93-.27-2.45 2.73-.78-4.16-3.9zM117.06 115.07l-2.86 4.36-.36 7.85 2.02-1.42 1.2-10.79zM163.48 70.97l.32-1.35h.69l.82-2.19-1.11-3.62-.37-.04.2 3.42-3.34 2.98 2.79.8zM90.32 52.21l.43-1.08-2.59-5.22.42 4.05-1.19 2.83 2.93-.58zM100.44 32.67l-1.67-1.43-3.74-.49 2.2 2.71 3.21-.79zM158.3 103.68l-.43 4.82.99-.83 1.23-3.47-1.79-.52M112.15 36.7l1.91.83.09-2.45 3.18-1.71-.43-.45-2.7.43-2.05 3.35zM84.26 41.72l-1.42-.79-2.47 1.5 3.89-.71zM15.21 81.68l2.41-.24 1.54 2.1h2.63l.07-.34-4.27-2.51-2.38.99zM160.24 90.43l-2.07-4.91-.45.48-.24 1.49 1.58 2.95 1.18-.01zM39.36 51.46l3.83-.76-1.65-2.47-2.18 3.23zM161.28 93.61l-1.89 2.22 2.57.83-.68-3.05zM165.12 61.39l-2.19-1.59.6 3.43 1.22-.67.37-1.17zM32.46 155.44l2.65.16-2.44-1.88-.85.5.64 1.22zM22.77 84.94l2.59-.14-2.77-.88.18 1.02zM97.19 66.95h-1.38l1.14 1.12.24-1.12zM103.36 70.11l.12-.53.07-.54-1.52-.2 1.33 1.27zM45.99 25.36l-10.63 1.01-2.8 2.99 13.84-3.51-.41-.49zM14.06 36.11l8.64-.59-1.61-2.58-4.21.51-2.82 2.66z"/>
  </g>
</svg>