<svg xmlns="http://www.w3.org/2000/svg" viewBox="0 0 588.33 397.48">
  <defs>
    <linearGradient id="a" x2="588.33" y1="198.74" y2="198.74" gradientUnits="userSpaceOnUse">
      <stop offset="0" stop-color="#7f37d7"/>
      <stop offset=".47" stop-color="#591eb8"/>
      <stop offset=".99" stop-color="#320598"/>
    </linearGradient>
  </defs>
  <path fill="url(#a)" d="M509 81.48c-5.62-2.9-11.4-5.59-17.59-7-7.09-1.66-14-4-22-6.24a43.32 43.32 0 0124.74.57c8.42 2.58 16.75 5.5 25.27 7.63 1.09.27 2.18.51 3.27.71a7.56 7.56 0 016.36-5.2c21-3.23 40.07-12.24 59.24-20.94a19.91 19.91 0 01-5.64-1.28c-12.85-5-25.12-11.43-37.57-17.39-3.42 1.94-6.91 3.75-10.37 5.63-.17-.28-.35-.56-.53-.84C536.5 35 538.85 33 541 30.88l.34-.35c-5.45-2.56-11-5-16.57-7.18a155.59 155.59 0 01-10.06 11.94c-2.83 2.91-6.27 5.23-9.43 7.82l-1.12-1.32c4.71-5.14 9.5-10.2 14.1-15.43a8.47 8.47 0 002.26-4.6c-1.75-.63-3.52-1.25-5.3-1.82-3.19-1-6.4-2-9.61-3a8.38 8.38 0 00-.41.9c-3.2 8.16-9.11 14.39-14.72 20.84-1.7 2-3.7 3.66-5.57 5.47l-.77-.57c1.57-3.52 3.24-7 4.71-10.57q3.18-7.71 6.09-15.55a3.49 3.49 0 00-.48-3.86c-5.16-1.55-10.31-3.14-15.42-4.86s-10.51-3.51-15.78-5.18a12.25 12.25 0 00-3.5 4.73c-3.59 7.37-8.72 13.43-14.41 19.17a80.77 80.77 0 00-6.35 7.32c-5.29 6.78-9.73 14-11.27 22.82-.73-3.87-1.73-7.84-.93-11.42a74 74 0 0118.36-34.57c2.72-2.95 5.38-6 7.87-9.1a3.94 3.94 0 00.9-1.8c-.68-.2-1.36-.38-2-.57-9.14.17-18.3 0-27.45-.06L416.64 0c-3.66 7.59-7.2 15.24-10.29 23.07a39.86 39.86 0 00-2.76 13.19c-.34 12.42 0 24.86-.06 37.29 0 2.13-.37 4.27-.56 6.4h-1.12a11.83 11.83 0 01-.86-2.44c-1-8-2.42-15.93-2.77-23.93-.78-17.9 1.38-35.44 7.91-52.31.15-.4.28-.8.4-1.2h-.84q-3.74.1-7.47.33l-2.47.17c-1.19.6-2.38 1.19-3.59 1.76a24.78 24.78 0 01-.52 2.77c-.06.25-.13.5-.19.75-2.81 12.27-5.31 24.55-3.57 37.3.61 4.45.36 9 .5 13.55l-2 .19a36.87 36.87 0 00-.05-6.22c-2.58-15.17-3.84-30.32-.8-45.51-4.88 1.86-9.86 3.47-14.58 5.72-.38.18-.75.38-1.13.57-.64.58-2.83 1.92-3.12 2.15s-.77.64-1.16 1c-.56 8.52-1.23 17.1-.5 25.53 1.5 17.16 4.21 34.22 6.44 51.31.53 4.11 1.18 8.2 1.69 12.31a12.87 12.87 0 01-.6 3c-3-16.25-5.84-31.49-8.66-46.74-.29-1.52-.5-3.07-.93-4.56-2.88-9.93-5.8-19.86-8.69-29.78-1.54 1.64-3.09 3.28-4.65 4.9-5 5.15-10 10.32-15.68 14.67-9.72 7.39-21.2 13.15-32.2 18.42l-.25.11a10.09 10.09 0 00-.43 3.91c1.26 18.22 2.46 36.46 3.84 54.67.67 8.9 1.81 17.77 2.43 26.67.16 2.33-.82 4.74-1.28 7.11l-1.33-.15c-.13-2.52-.3-5.05-.38-7.57-.27-8.42.39-17-1-25.24-1.95-12-5.06-23.82-8.22-35.57-1.5-5.59-4.1-10.9-6.51-16.2a8.42 8.42 0 00-1-1.66q-8 3.14-16.19 5.64-6.66 2-13.4 3.8l-1.48.34-1.19.35-1.32.39q-7.9 2.37-15.66 5.26a279.43 279.43 0 00-30.3 13.44c-2.87 1.48-5.7 3-8.52 4.56l-3.59 2c-.34.63-2.89 1.73-3.48 2.09q-1.77 1.08-3.51 2.19-3.54 2.26-6.93 4.74c-12 8.75-25 19.32-34.39 30.67a3.07 3.07 0 00-.84 1.56 3.2 3.2 0 00.6 1.83c3.51 6.32 3.94 13.46 5.52 20.36 7.27 31.75 7.7 64 7.83 96.34 0 3.62-.87 7.25-1.34 10.87h-.86a6.71 6.71 0 01-.6-1.31c-2.16-10-4-20-3.43-30.42.58-10.67-.43-21.2-5-31.19a111.11 111.11 0 01-7.28-23.71c-.32-9.06-8-18.55-12.88-25.61-10.2 19.24-17 40.15-27.55 59.33-4.45 8.05-9.34 15.55-16.13 21.66-18.4 16.58-31.9 36.22-38.06 60.44-1.84 7.27-3.18 14.67-4.59 22-1.52 7.87-1.87 16.13-4.49 23.6-3.74 10.84-11.57 18.88-21.69 24.51-5.1 2.83-10 6-15 9-2.12 1.28-2.64 2.61-.51 4.51 2.52 2.24 4.85 4.69 7.21 7.09 1.58 1.59 3 1.83 5.13.62 9-5.08 18.3-9.77 27.31-14.9a40 40 0 0127.39-4.6c11.38 2 22.78 3.76 34.12 5.9 16.31 3.08 32.89 4.38 49.16 1.88a178.73 178.73 0 0025.81-5.87 15.86 15.86 0 015.67-3.53 91 91 0 0014.18-6.15l.49-.32c1-.62 1.93-1.26 2.87-1.92 2.24-1.54 4.41-3.17 6.52-4.87 4-3.18 7.64-6.63 11.28-10.17l.34-.36c.82-.88 1.64-1.77 2.45-2.66 1.9-2.1 3.75-4.23 5.57-6.39q2.49-3 4.89-6c-2.22 0-4.43.14-6.62.37-11.12 1.19-22.14 2.36-33.24-.4-13.06-3.25-26.37-3.88-39.79-2.92a81.33 81.33 0 01-9.08-.34 9.16 9.16 0 014.49-1.52c10-.58 19.9-1.14 29.86-1.59 18.44-.82 36.87-3.17 55.35-1.4a23.36 23.36 0 005 0c5.07-6.75 10-13.63 15-20.4-4.85-.1-9.69-.25-14.54-.2-22.25.25-44.51 0-66.41 5.25-5.48 1.3-11.37.87-17.07 1.23-.09-.54-.17-1.08-.25-1.63 5.67-1.52 11.33-3.12 17-4.54 7.66-1.91 15.56-3.07 23-5.64 13.92-4.83 28.2-6.51 42.76-6.5a168.63 168.63 0 0123.26 1.24l.47.05c.26-.34.53-.68.8-1 6.51-8.09 13.64-15.66 20.91-23.07h-.6c-5.94.33-11.86 1.32-17.8 1.38-7 .08-14-.66-21-.85-19.17-.52-37.92 1.77-56 8.41a61.92 61.92 0 01-8.06 1.81 4.49 4.49 0 012.77-2.26c8.49-2.36 17-4.64 25.48-7a383.17 383.17 0 0187.65-14q2.89-2.85 5.77-5.73c1.64-1.64 3.47-3.24 5.07-5 .41-.5.87-1.05 1.15-1.35 1-1.06 2-2.13 3-3.2 10.91-11.71 21.91-23.64 33.26-35.07-30.43-2.49-60 3.53-89.2 12.62a59.55 59.55 0 019.7-3.75c10.41-3.14 20.83-6.29 31.28-9.33 6.94-2 13.83-4.57 20.94-5.6 12.45-1.79 25-3 37.57-4 3.29-3.11 6.63-6.18 10-9.17 11.06-9.75 22.07-19.2 33.77-27.8-5.53.34-11 .9-16.57 1.33s-11 1.18-16.54 1.14c-7.87-.05-15.74-.64-23.6-1.08-2.23-.13-4.44-.54-6.65-.82 0-.4-.05-.8-.08-1.2a23.34 23.34 0 013-1c13.44-2.81 27-5.09 40.29-8.54 10.09-2.62 20.35-5.66 29.52-10.46 10.49-5.48 19.88-13.08 29.68-19.87 1.1-.75 1.72-2.21 2.55-3.34l-.64-1.38c-11.37 2.1-22.66 5.2-34.12 6s-22.92-.64-34.39-1.09c7.72-2.07 15.57-3.54 23.42-5 4.44-.82 8.9-1.54 13.32-2.47 6-1.25 11.82-3 17.82-3.92 19.88-3 39.7-4.51 59.07-10.27 6.83-2 13.9-3.11 20.74-5.11s13.65-5.21 20.55-7.63c-3.05 1.08-13.05-6.25-15.78-7.64z"/>
</svg>