<svg xmlns="http://www.w3.org/2000/svg" viewBox="0 0 36.62 49.02">
  <defs>
    <linearGradient id="a" x1="959.6" x2="997.52" y1="-2214.72" y2="-2214.72" gradientTransform="rotate(-45 3206.36 66.852)" gradientUnits="userSpaceOnUse">
      <stop offset="0" stop-color="#ff77fc"/>
      <stop offset=".49" stop-color="#ff9ba8"/>
      <stop offset="1" stop-color="#ffc053"/>
    </linearGradient>
  </defs>
  <path fill="url(#a)" d="M32.18 18.58H31c-1.14-3.09-3.48-3.88-6.56-3.07-1.44-2.69-3.62-3.29-6.44-2.39v-2.47c0-2.19.05-4.38 0-6.57A4.06 4.06 0 0014.17 0a4.16 4.16 0 00-4.45 3.64 13.69 13.69 0 00-.06 2v18.57c0 .47-.08.94-.14 1.71-.71-.77-1.14-1.29-1.62-1.75a10.38 10.38 0 00-1.71-1.47c-1.53-.94-4.23-.72-5.31.35S-.28 25.81 1 27.8l4 6.31a38.39 38.39 0 015.7 13.69 6.57 6.57 0 00.43 1.2H32c2.06-5.7 5-11.13 4.57-17.51-.18-2.94 0-5.89-.07-8.83-.09-2.75-1.6-4.09-4.32-4.08z"/>
</svg>