<svg xmlns="http://www.w3.org/2000/svg" viewBox="0 0 568.66 554.85">
  <path fill="#d0d4f4" d="M432.2 330l-28.14-54 7.33-8.82 5.25 4.28 27.49-36.67-4.13-5.37.31-6-9-16.16 5.3-8.44-13.23-5.44 4-9 3.93 1.48 1.35 5.2 7.94-1.87 8.62 15 30-1.61L469 176.1l-15.65-4 7.63-.86 2.51-24.08-26.25-24.06 2.29-9.47 18.09-7.88 31.48-16.34 20.26 39.08 13.26-9.62-9-52.56-41.94-.51-70.97-16.56-79.27 3.11-.26-1.35 7.33-5.91-1-1.67-22.39-29.73-4.94 19.58L285 30l-6.24 19.14-18.4 7.69.2-.39-1-13.22L267 13.48l-16.16-.1-10.6 17.29 1.28 28-11.82 9.48L195 70.2l1.69 5.66-18.9-42.78L139.24 65l-10.82 17.78 10.39 10.65-12.9 12.57-9.52-27.8L91.49 98l2.2 18.5-6.25 12.93 15.36-2.64 10.15-6.6-17.65 21.3 8.73 7.37-10.81 10.42-6.76 8.62 5.78 28.1 14.47-3.46 18.64-29.45 2-.91L140 201.1l-7.1 6.39 7.11 4.23 21.78-19.15-3.43-3.35 1.1-.86 15.45 15.19-2.16 1.16 5.16 7 3.5-1.78 7.3 7.17-9.81-2.72-80.19 15.55-15.14-.41L121.11 211l-.7-7.56-13.78-7.39-96.22 39L0 299.18 21.14 362l66.13 42.1 51.12 100.53L180 544.14 210.92 420l-4.46-33.23 35.34-75.49-16.17 5.57-41.1-84.85.73-.31 5.11 7.73 1-6.68 36.37 71.74 29.11 3.43-1.59-59.91-19.29.7-3.42-19 71.28 35.3 15.31 57.31 5.25 2.22 6.76 1.47 1.74 9.23 27.6 7.41 2.64-5.14-3.7-10.69-5.08-1 16-34 11.36 1.44L405.64 324zM257 77.41l1.41-7.75-2.41-4.31 1.69-3.35 4.9 12z"/>
  <path fill="#d0d4f4" d="M413.19 278.3l1.31 4.26 26.44.56 3.48-8.9-26.39.47-4.84 3.61zM424.16 402.04l9.33 7.51 15.77 5.96 13.58-4.97-7.71-7.59-30.97-.91zM487.62 379.06l-22.33-13.75 8.64-16.98-14.26-9.08-11.46 1.32-18.51 16.25 5.14 19.43 18.09 13.35 5.63-11.07-.2 5.54 17.79 17.19 11.47-22.2zM134.23 195.04l-7.25-.01 5.99 5.09 1.26-5.08zM216.29 436.53l3.4 36.32 29.21 25.3 16.6-63.02-28.97-18.06-20.24 19.46zM210.81 59.12l9.98 3.8.47-11.18 16.69-2.21 2.24-7.42-15.58 1.09-5.41 4.37-18.82-.51 3.32 13.21 7.11-1.15zM174.86 16.43l4.89-6.54L151.84 0l-.63 8.04 9.63 11.84 14.02-3.45zM90.36 76.15l5.88-19.56-20.05 3.68 7.7 17.29 6.47-1.41zM449.45 284.33l-1.25 6.83 8.24 13.46 25.83 3.41 6.12-.02-10.68-25.39-28.26 1.71zM405 346.23l-8.13 4.68 14.25 41.58 22.71 8.24-28.83-54.5zM505.06 424.45l-7.5 9.9-20.81-15.55-25.62 20.9-5.36-2.81-32.68 32.57 8.08 44.08 25.42 29.08 34.68 1.65 46.42-65.58-9.95-49.68-12.68-4.56zM526.66 375.74l-14.1 6.76-5.56-5.28-6.69.9-2.75 4.62L513 393.63l-6.74 8.59 24.16 10.83 3.18-3.75-.91-26.88-6.03-6.68zM477.08 144.96l-18-15.48 17.38 30.97.62-15.49zM460.9 252.49l-13.47-.75-2.74 7.95 2.54 5 25.96-1.77 1.96-13.85-1.76-.78-12.49 4.2zM502.27 149.88l-8.51 6.68 2.43 14.92 9.18-3.85 6.28-3.5-1.59-2.44 3.51-3.58-11.3-8.23zM469.94 324.38l14.05 11.5 13.26 4.27-3.49-15.77-18.66-5.29-5.16 5.29z"/>
  <path fill="#d0d4f4" d="M505.06 377.22l-2.16-15.2-17.47-4.32-4.86 6.73 15.27 9.05 9.22 3.74zM506.76 200.6l7.81-11.3-7.64-18.92-17.09 13.17.72 10.84-9.29 9.9 3.16 5.73 20.66-2.45 1.67-6.97z"/>
  <path fill="#f5f6fd" d="M432.2 329.99l11.56-18.27-13.12-35.97 7.23-9.96 5.17 4.83 27.1-41.43-4.08-6.12.31-6.77-8.84-18.26 5.22-9.53-13.03-6.15 3.91-10.14 3.87 1.68 1.33 5.87 7.83-2.11 12.51 24.95 4.16-13.31-9.97-11.36 5.84-19.61 7.52-.96 2.47-27.22-25.82-27.22 2.25-10.7 36.15-20.02 20.85 46.66 2.32-34.68-7.74-21.99-19.94-24.01-69.89-18.7-78.13 3.53-.26-1.55 7.22-6.67-.96-1.89-25.57-6.14-24.55 6.92 2.01 5.64-22.17 10.62 6.27 17.5-5.51 3.88 1.39-8.75-7.7-15.97-8.55 3.09-12.09 11.13-34.16 2.37 1.66 6.4-14.71 6.47-11.18-9.01 18.82.51-41.41-14.49-38.23 45.33 7.78 7.46 4.37-3.68 3.99 10.92 6.55 3.16 8.4-16.72-4.23-8.07 11.94-18.4 3.04.22-3.33 21.41 17.57 3.67-23.67 26.5-21.59-.45 4.99-4.18.39-4.44-6.19 3.17.82-8.48-39.17 43.83 8.66 10.57-6.93 13.13-14.42 2.22.23 27.4 7.95 4.9 44.19-35.26 15.16 25.88 6.7-9.78-16.69-20.46-.12-4.75 2.01-1.04 27.4 35.38.54-9.6 14.48-3.56-2-6.92 9.75-21.51 4.32 9.08 6.84-1.91-4.5-3.61 11.2-7.2-2.41 13.39 12.09 14.61-40.67 9.69 2.32 8.43 26.04 10.79-2.4 17.93-42.09 2.25-3 8.84-24.1-20.89-.7-8.54-4.52-4.85-39.92 7.14-88.61 35.65-10.13 65.39 25.5 52.2 74.61 33.1 72.01 161.72 11.31-.66 48.94-105.07-4.39-37.54 34.84-85.3-15.94 6.29L215 225.7l6 1.18 35.83 81.06 37.2-42.42-10.05-21.44-19.01.79-3.37-21.44 70.25 39.85 15.09 64.77 5.17 2.5 31.97-67.88 16.53 31.32 8.03 1.16 23.56 34.84zM512.59 459.13l-3.72 1.17-3.7-5.03-.9-18.69-29.2 24.08-2.69-2.07-22.59 33.59-3.2 50.44 34.68 1.65 6.35 10.58 24.96-22.74 15.11-53.42-9.95-49.68-5.15 30.12zM568.66 429.46l-35.97-47.04-10.41 8.32-5.26-5.74-1.43 5.23 18.01 19.07-3.18 3.75 38.24 16.41zM446.5 364.72l.81 18.36 5.62 6.52 13.86-3.07 7.14-38.2-9.18-1.97-18.25 18.36z"/>
  <path fill="#f5f6fd" d="M248.9 498.15l10.42-7.33 6.18-55.69-14.74 22.54-1.86 40.48zM435.07 385.15L405 346.23l-.79 1.24 29.62 53.26 1.24-15.58zM506.76 200.6l3.56-.03 4.25-11.27-5.77-18.71-1.87-.21 1.02 17.65-17.27 15.37 14.41 4.17 1.67-6.97zM127.53 110.73l2.21-5.55-13.35-26.98 2.16 20.91-6.16 14.6 15.14-2.98zM179.75 9.89l-8.63-7.37L151.84 0l11.37 13.96 16.54-4.07zM487.62 379.06l-9.28-2.68-2.19 24.88 5.11-4.32 6.36-17.88zM250.5 22.33l16.45-8.85-2.26-2.31-13.9 2.21-10.6 17.29 9.84 4.29.47-12.63zM462.84 410.54l-29.35-.99 29.35 11.3v-10.31zM88.9 52.5l-12.71 7.77 20.05-3.68-7.34-4.09zM488.39 308.01l-10.68-25.39-2.33 2.49-1.23 7.72 8.12 15.2 6.12-.02zM493.76 324.38l-9.77 11.5 13.26 4.27-3.49-15.77zM513.57 158.11l-11.3-8.23 3.1 17.75 6.28-3.5 1.92-6.02zM357.96 327.28l2.53 15.36 2.64-5.14-3.7-10.69-1.47.47zM475.15 249.07l-1.76-.78-2.7 8.98 2.5 5.65 1.2-.8.76-13.05zM440.94 283.12l1.25.11 3.03-7.51-.8-1.5-4.78 4.08 1.3 4.82zM502.9 362.02l-7.06 11.46 9.22 3.74-2.16-15.2zM155.85 186.81l5.91 5.75 1.24-5.74-7.15-.01zM195.8 197.6l-7.83-1.06 6.84 6.57.62-2.71.37-2.8z"/>
</svg>